<svg class="marks" width="1250" height="459" viewBox="0 0 1250 459" version="1.1" xmlns="http://www.w3.org/2000/svg" xmlns:xlink="http://www.w3.org/1999/xlink"><rect width="1250" height="459" style="fill: #FFFFFF;"></rect><g transform="translate(54,24)"><g class="mark-group role-frame root"><g transform="translate(0,0)"><path class="background" d="M0,0h1088v0h-1088Z" style="fill: none;"></path><g><g class="mark-group role-scope controlChart"><g transform="translate(0,0)"><path class="background" d="M0,0hNaNv400hNaNZ" style="fill: none;"></path><g><g class="mark-group role-axis"><g transform="translate(0.5,400.5)"><path class="background" d="M0,0h0v0h0Z" style="pointer-events: none; fill: none;"></path><g><g class="mark-rule role-axis-tick" style="pointer-events: none;"><line transform="translate(0,0)" x2="0" y2="5" style="fill: none; stroke: #888; stroke-width: 1; opacity: 1;"></line><line transform="translate(121,0)" x2="0" y2="5" style="fill: none; stroke: #888; stroke-width: 1; opacity: 1;"></line><line transform="translate(242,0)" x2="0" y2="5" style="fill: none; stroke: #888; stroke-width: 1; opacity: 1;"></line><line transform="translate(363,0)" x2="0" y2="5" style="fill: none; stroke: #888; stroke-width: 1; opacity: 1;"></line><line transform="translate(484,0)" x2="0" y2="5" style="fill: none; stroke: #888; stroke-width: 1; opacity: 1;"></line><line transform="translate(604,0)" x2="0" y2="5" style="fill: none; stroke: #888; stroke-width: 1; opacity: 1;"></line><line transform="translate(725,0)" x2="0" y2="5" style="fill: none; stroke: #888; stroke-width: 1; opacity: 1;"></line><line transform="translate(846,0)" x2="0" y2="5" style="fill: none; stroke: #888; stroke-width: 1; opacity: 1;"></line><line transform="translate(967,0)" x2="0" y2="5" style="fill: none; stroke: #888; stroke-width: 1; opacity: 1;"></line><line transform="translate(1088,0)" x2="0" y2="5" style="fill: none; stroke: #888; stroke-width: 1; opacity: 1;"></line></g><g class="mark-text role-axis-label" style="pointer-events: none;"><text text-anchor="middle" transform="translate(0,15)" style="font-family: sans-serif; font-size: 10px; fill: #000; opacity: 1;">0</text><text text-anchor="middle" transform="translate(120.88888888888889,15)" style="font-family: sans-serif; font-size: 10px; fill: #000; opacity: 1;">2</text><text text-anchor="middle" transform="translate(241.77777777777777,15)" style="font-family: sans-serif; font-size: 10px; fill: #000; opacity: 1;">4</text><text text-anchor="middle" transform="translate(362.66666666666663,15)" style="font-family: sans-serif; font-size: 10px; fill: #000; opacity: 1;">6</text><text text-anchor="middle" transform="translate(483.55555555555554,15)" style="font-family: sans-serif; font-size: 10px; fill: #000; opacity: 1;">8</text><text text-anchor="middle" transform="translate(604.4444444444445,15)" style="font-family: sans-serif; font-size: 10px; fill: #000; opacity: 1;">10</text><text text-anchor="middle" transform="translate(725.3333333333333,15)" style="font-family: sans-serif; font-size: 10px; fill: #000; opacity: 1;">12</text><text text-anchor="middle" transform="translate(846.2222222222223,15)" style="font-family: sans-serif; font-size: 10px; fill: #000; opacity: 1;">14</text><text text-anchor="middle" transform="translate(967.1111111111111,15)" style="font-family: sans-serif; font-size: 10px; fill: #000; opacity: 1;">16</text><text text-anchor="middle" transform="translate(1088,15)" style="font-family: sans-serif; font-size: 10px; fill: #000; opacity: 1;">18</text></g><g class="mark-rule role-axis-domain" style="pointer-events: none;"><line transform="translate(0,0)" x2="1088" y2="0" style="fill: none; stroke: #888; stroke-width: 1; opacity: 1;"></line></g><g class="mark-text role-axis-title" style="pointer-events: none;"><text text-anchor="middle" transform="translate(544,31)" style="font-family: sans-serif; font-size: 11px; font-weight: bold; fill: #000; opacity: 1;">week</text></g></g></g></g><g class="mark-group role-axis"><g transform="translate(0.5,0.5)"><path class="background" d="M0,0h0v0h0Z" style="pointer-events: none; fill: none;"></path><g><g class="mark-rule role-axis-tick" style="pointer-events: none;"><line transform="translate(0,240)" x2="-5" y2="0" style="fill: none; stroke: #888; stroke-width: 1; opacity: 1;"></line><line transform="translate(0,200)" x2="-5" y2="0" style="fill: none; stroke: #888; stroke-width: 1; opacity: 1;"></line><line transform="translate(0,400)" x2="-5" y2="0" style="fill: none; stroke: #888; stroke-width: 1; opacity: 1;"></line><line transform="translate(0,360)" x2="-5" y2="0" style="fill: none; stroke: #888; stroke-width: 1; opacity: 1;"></line><line transform="translate(0,320)" x2="-5" y2="0" style="fill: none; stroke: #888; stroke-width: 1; opacity: 1;"></line><line transform="translate(0,280)" x2="-5" y2="0" style="fill: none; stroke: #888; stroke-width: 1; opacity: 1;"></line><line transform="translate(0,160)" x2="-5" y2="0" style="fill: none; stroke: #888; stroke-width: 1; opacity: 1;"></line><line transform="translate(0,120)" x2="-5" y2="0" style="fill: none; stroke: #888; stroke-width: 1; opacity: 1;"></line><line transform="translate(0,80)" x2="-5" y2="0" style="fill: none; stroke: #888; stroke-width: 1; opacity: 1;"></line><line transform="translate(0,40)" x2="-5" y2="0" style="fill: none; stroke: #888; stroke-width: 1; opacity: 1;"></line><line transform="translate(0,0)" x2="-5" y2="0" style="fill: none; stroke: #888; stroke-width: 1; opacity: 1;"></line></g><g class="mark-text role-axis-label" style="pointer-events: none;"><text text-anchor="end" transform="translate(-7,243)" style="font-family: sans-serif; font-size: 10px; fill: #000; opacity: 1;">0.000</text><text text-anchor="end" transform="translate(-7,203)" style="font-family: sans-serif; font-size: 10px; fill: #000; opacity: 1;">0.001</text><text text-anchor="end" transform="translate(-7,403)" style="font-family: sans-serif; font-size: 10px; fill: #000; opacity: 1;">-0.004</text><text text-anchor="end" transform="translate(-7,363)" style="font-family: sans-serif; font-size: 10px; fill: #000; opacity: 1;">-0.003</text><text text-anchor="end" transform="translate(-7,323)" style="font-family: sans-serif; font-size: 10px; fill: #000; opacity: 1;">-0.002</text><text text-anchor="end" transform="translate(-7,283)" style="font-family: sans-serif; font-size: 10px; fill: #000; opacity: 1;">-0.001</text><text text-anchor="end" transform="translate(-7,163)" style="font-family: sans-serif; font-size: 10px; fill: #000; opacity: 1;">0.002</text><text text-anchor="end" transform="translate(-7,123)" style="font-family: sans-serif; font-size: 10px; fill: #000; opacity: 1;">0.003</text><text text-anchor="end" transform="translate(-7,83)" style="font-family: sans-serif; font-size: 10px; fill: #000; opacity: 1;">0.004</text><text text-anchor="end" transform="translate(-7,42.99999999999994)" style="font-family: sans-serif; font-size: 10px; fill: #000; opacity: 1;">0.005</text><text text-anchor="end" transform="translate(-7,3)" style="font-family: sans-serif; font-size: 10px; fill: #000; opacity: 1;">0.006</text></g><g class="mark-rule role-axis-domain" style="pointer-events: none;"><line transform="translate(0,400)" x2="0" y2="-400" style="fill: none; stroke: #888; stroke-width: 1; opacity: 1;"></line></g><g class="mark-text role-axis-title" style="pointer-events: none;"><text text-anchor="middle" transform="translate(-40.3544921875,200) rotate(-90) translate(0,-2)" style="font-family: sans-serif; font-size: 11px; font-weight: bold; fill: #000; opacity: 1;">Metric Column</text></g></g></g></g><g class="mark-rule role-mark"><line transform="translate(0,206.27524860845406)" x2="1088" y2="0" style="fill: none; stroke: #000; stroke-opacity: 0; stroke-width: 2;"></line></g><g class="mark-rule role-mark"><line transform="translate(0,384.9113443989329)" x2="1088" y2="0" style="fill: none; stroke: #000; stroke-opacity: 0; stroke-width: 2; stroke-dasharray: 8,8;"></line></g><g class="mark-rule role-mark"><line transform="translate(0,325.36597913543994)" x2="1088" y2="0" style="fill: none; stroke: #000; stroke-opacity: 0; stroke-width: 2; stroke-dasharray: 6,2;"></line></g><g class="mark-rule role-mark"><line transform="translate(0,87.18451808146813)" x2="1088" y2="0" style="fill: none; stroke: #000; stroke-opacity: 0; stroke-width: 2; stroke-dasharray: 8,8;"></line></g><g class="mark-rule role-mark"><line transform="translate(0,27.639152817975116)" x2="1088" y2="0" style="fill: none; stroke: #000; stroke-opacity: 0; stroke-width: 2; stroke-dasharray: 6,2;"></line></g><g class="mark-group role-scope"><g transform="translate(0,0)"><path class="background" d="M0,0h0v0h0Z" style="fill: none;"></path><g><g class="mark-line role-mark"><path d="M0,202.96289394227963L120.88888888888889,240L181.33333333333331,198.51087488774587L241.77777777777777,222.79567163684766L362.66666666666663,208.1090007773747L483.55555555555554,173.48076609974368L604.4444444444445,190.44355640506825L725.3333333333333,210.79866360773144L846.2222222222223,211.2751383357867L967.1111111111111,236.91024254596016L1088,206.45852220617093" style="fill: none; stroke: #7fc97f; stroke-width: 3; opacity: 1;"></path></g><g class="mark-symbol role-mark"><path transform="translate(0,202.96289394227963)" d="M3.5355339059327378,0A3.5355339059327378,3.5355339059327378,0,1,1,-3.5355339059327378,0A3.5355339059327378,3.5355339059327378,0,1,1,3.5355339059327378,0" style="fill: #7fc97f; stroke: #7fc97f; opacity: 0;"></path><path transform="translate(181.33333333333331,198.51087488774587)" d="M3.5355339059327378,0A3.5355339059327378,3.5355339059327378,0,1,1,-3.5355339059327378,0A3.5355339059327378,3.5355339059327378,0,1,1,3.5355339059327378,0" style="fill: #7fc97f; stroke: #7fc97f; opacity: 0;"></path><path transform="translate(604.4444444444445,190.44355640506825)" d="M3.5355339059327378,0A3.5355339059327378,3.5355339059327378,0,1,1,-3.5355339059327378,0A3.5355339059327378,3.5355339059327378,0,1,1,3.5355339059327378,0" style="fill: #7fc97f; stroke: #7fc97f; opacity: 0;"></path><path transform="translate(1088,206.45852220617093)" d="M3.5355339059327378,0A3.5355339059327378,3.5355339059327378,0,1,1,-3.5355339059327378,0A3.5355339059327378,3.5355339059327378,0,1,1,3.5355339059327378,0" style="fill: #7fc97f; stroke: #7fc97f; opacity: 0;"></path><path transform="translate(120.88888888888889,240)" d="M3.5355339059327378,0A3.5355339059327378,3.5355339059327378,0,1,1,-3.5355339059327378,0A3.5355339059327378,3.5355339059327378,0,1,1,3.5355339059327378,0" style="fill: #7fc97f; stroke: #7fc97f; opacity: 0;"></path><path transform="translate(362.66666666666663,208.1090007773747)" d="M3.5355339059327378,0A3.5355339059327378,3.5355339059327378,0,1,1,-3.5355339059327378,0A3.5355339059327378,3.5355339059327378,0,1,1,3.5355339059327378,0" style="fill: #7fc97f; stroke: #7fc97f; opacity: 0;"></path><path transform="translate(483.55555555555554,173.48076609974368)" d="M3.5355339059327378,0A3.5355339059327378,3.5355339059327378,0,1,1,-3.5355339059327378,0A3.5355339059327378,3.5355339059327378,0,1,1,3.5355339059327378,0" style="fill: #7fc97f; stroke: #7fc97f; opacity: 0;"></path><path transform="translate(725.3333333333333,210.79866360773144)" d="M3.5355339059327378,0A3.5355339059327378,3.5355339059327378,0,1,1,-3.5355339059327378,0A3.5355339059327378,3.5355339059327378,0,1,1,3.5355339059327378,0" style="fill: #7fc97f; stroke: #7fc97f; opacity: 0;"></path><path transform="translate(846.2222222222223,211.2751383357867)" d="M3.5355339059327378,0A3.5355339059327378,3.5355339059327378,0,1,1,-3.5355339059327378,0A3.5355339059327378,3.5355339059327378,0,1,1,3.5355339059327378,0" style="fill: #7fc97f; stroke: #7fc97f; opacity: 0;"></path><path transform="translate(967.1111111111111,236.91024254596016)" d="M3.5355339059327378,0A3.5355339059327378,3.5355339059327378,0,1,1,-3.5355339059327378,0A3.5355339059327378,3.5355339059327378,0,1,1,3.5355339059327378,0" style="fill: #7fc97f; stroke: #7fc97f; opacity: 0;"></path><path transform="translate(241.77777777777777,222.79567163684766)" d="M3.5355339059327378,0A3.5355339059327378,3.5355339059327378,0,1,1,-3.5355339059327378,0A3.5355339059327378,3.5355339059327378,0,1,1,3.5355339059327378,0" style="fill: #7fc97f; stroke: #7fc97f; opacity: 0;"></path></g><g class="mark-rect role-mark"><path d="M0,147.63309813983324h2v92.36690186016676h-2Z" style="fill: #7fc97f; opacity: 0;"></path><path d="M181.33333333333331,171.7655433896042h2v52.66121962048521h-2Z" style="fill: #7fc97f; opacity: 0;"></path><path d="M604.4444444444445,151.07775088922955h2v73.84888899917567h-2Z" style="fill: #7fc97f; opacity: 0;"></path><path d="M1088,177.76069327469446h2v53.5310615743046h-2Z" style="fill: #7fc97f; opacity: 0;"></path><path d="M120.88888888888889,240h2v0h-2Z" style="fill: #7fc97f; opacity: 0;"></path><path d="M362.66666666666663,170.87891887119451h2v65.31481982896725h-2Z" style="fill: #7fc97f; opacity: 0;"></path><path d="M483.55555555555554,130.5470141746389h2v85.13823848998905h-2Z" style="fill: #7fc97f; opacity: 0;"></path><path d="M725.3333333333333,186.80851063829786h2v47.57646918272337h-2Z" style="fill: #7fc97f; opacity: 0;"></path><path d="M846.2222222222223,182.55027667157339h2v57.449723328426614h-2Z" style="fill: #7fc97f; opacity: 0;"></path><path d="M967.1111111111111,230.73072763788042h2v9.26927236211958h-2Z" style="fill: #7fc97f; opacity: 0;"></path><path d="M241.77777777777777,205.59134327369532h2v34.408656726304685h-2Z" style="fill: #7fc97f; opacity: 0;"></path></g></g></g><g transform="translate(0,0)"><path class="background" d="M0,0h0v0h0Z" style="fill: none;"></path><g><g class="mark-line role-mark"><path d="M0,240L120.88888888888889,198.3219084178777L241.77777777777777,234.46290143964563L362.66666666666663,234.56816947311245L483.55555555555554,193.87165988178694L604.4444444444445,194.3307086614173L725.3333333333333,175.93178348169275L846.2222222222223,168.49631966351214L967.1111111111111,240L1088,210.18162103551097" style="fill: none; stroke: #beaed4; stroke-width: 3; opacity: 1;"></path></g><g class="mark-symbol role-mark"><path transform="translate(1088,210.18162103551097)" d="M3.5355339059327378,0A3.5355339059327378,3.5355339059327378,0,1,1,-3.5355339059327378,0A3.5355339059327378,3.5355339059327378,0,1,1,3.5355339059327378,0" style="fill: #beaed4; stroke: #beaed4; opacity: 0;"></path><path transform="translate(0,240)" d="M3.5355339059327378,0A3.5355339059327378,3.5355339059327378,0,1,1,-3.5355339059327378,0A3.5355339059327378,3.5355339059327378,0,1,1,3.5355339059327378,0" style="fill: #beaed4; stroke: #beaed4; opacity: 0;"></path><path transform="translate(120.88888888888889,198.3219084178777)" d="M3.5355339059327378,0A3.5355339059327378,3.5355339059327378,0,1,1,-3.5355339059327378,0A3.5355339059327378,3.5355339059327378,0,1,1,3.5355339059327378,0" style="fill: #beaed4; stroke: #beaed4; opacity: 0;"></path><path transform="translate(362.66666666666663,234.56816947311245)" d="M3.5355339059327378,0A3.5355339059327378,3.5355339059327378,0,1,1,-3.5355339059327378,0A3.5355339059327378,3.5355339059327378,0,1,1,3.5355339059327378,0" style="fill: #beaed4; stroke: #beaed4; opacity: 0;"></path><path transform="translate(483.55555555555554,193.87165988178694)" d="M3.5355339059327378,0A3.5355339059327378,3.5355339059327378,0,1,1,-3.5355339059327378,0A3.5355339059327378,3.5355339059327378,0,1,1,3.5355339059327378,0" style="fill: #beaed4; stroke: #beaed4; opacity: 0;"></path><path transform="translate(604.4444444444445,194.3307086614173)" d="M3.5355339059327378,0A3.5355339059327378,3.5355339059327378,0,1,1,-3.5355339059327378,0A3.5355339059327378,3.5355339059327378,0,1,1,3.5355339059327378,0" style="fill: #beaed4; stroke: #beaed4; opacity: 0;"></path><path transform="translate(725.3333333333333,175.93178348169275)" d="M3.5355339059327378,0A3.5355339059327378,3.5355339059327378,0,1,1,-3.5355339059327378,0A3.5355339059327378,3.5355339059327378,0,1,1,3.5355339059327378,0" style="fill: #beaed4; stroke: #beaed4; opacity: 0;"></path><path transform="translate(846.2222222222223,168.49631966351214)" d="M3.5355339059327378,0A3.5355339059327378,3.5355339059327378,0,1,1,-3.5355339059327378,0A3.5355339059327378,3.5355339059327378,0,1,1,3.5355339059327378,0" style="fill: #beaed4; stroke: #beaed4; opacity: 0;"></path><path transform="translate(241.77777777777777,234.46290143964563)" d="M3.5355339059327378,0A3.5355339059327378,3.5355339059327378,0,1,1,-3.5355339059327378,0A3.5355339059327378,3.5355339059327378,0,1,1,3.5355339059327378,0" style="fill: #beaed4; stroke: #beaed4; opacity: 0;"></path><path transform="translate(967.1111111111111,240)" d="M3.5355339059327378,0A3.5355339059327378,3.5355339059327378,0,1,1,-3.5355339059327378,0A3.5355339059327378,3.5355339059327378,0,1,1,3.5355339059327378,0" style="fill: #beaed4; stroke: #beaed4; opacity: 0;"></path></g><g class="mark-rect role-mark"><path d="M1088,150.54486310653292h2v89.45513689346708h-2Z" style="fill: #beaed4; opacity: 0;"></path><path d="M0,240h2v0h-2Z" style="fill: #beaed4; opacity: 0;"></path><path d="M120.88888888888889,114.96572525363314h2v125.03427474636686h-2Z" style="fill: #beaed4; opacity: 0;"></path><path d="M362.66666666666663,223.70450841933732h2v16.295491580662684h-2Z" style="fill: #beaed4; opacity: 0;"></path><path d="M483.55555555555554,119.22158212128926h2v120.77841787871074h-2Z" style="fill: #beaed4; opacity: 0;"></path><path d="M604.4444444444445,102.99212598425197h2v137.00787401574803h-2Z" style="fill: #beaed4; opacity: 0;"></path><path d="M725.3333333333333,109.09803243741538h2v130.90196756258462h-2Z" style="fill: #beaed4; opacity: 0;"></path><path d="M846.2222222222223,25.488958990536275h2v214.51104100946372h-2Z" style="fill: #beaed4; opacity: 0;"></path><path d="M241.77777777777777,223.38870431893687h2v16.611295681063126h-2Z" style="fill: #beaed4; opacity: 0;"></path><path d="M967.1111111111111,240h2v0h-2Z" style="fill: #beaed4; opacity: 0;"></path></g></g></g></g><g class="mark-group role-scope"><g transform="translate(0,0)"><path class="background" d="M0,0h0v0h0Z" style="fill: none;"></path><g><g class="mark-line role-mark"><path d="M0,100.5461940732132L0,240L0,240L120.88888888888889,240L181.33333333333331,147.53582986592698L181.33333333333331,205.34796419289634L362.66666666666663,183.18181818181816L483.55555555555554,160.12779552715654L604.4444444444445,240L604.4444444444445,194.40482006187918L725.3333333333333,188.55778063567885L846.2222222222223,176.63366336633666L967.1111111111111,240L1088,114.41130298273157L1088,221.99009455200363" style="fill: none; stroke: #7fc97f; stroke-width: 0.5; opacity: 0.5;"></path></g><g class="mark-symbol role-mark"><path transform="translate(0,100.5461940732132)" d="M3.5355339059327378,0A3.5355339059327378,3.5355339059327378,0,1,1,-3.5355339059327378,0A3.5355339059327378,3.5355339059327378,0,1,1,3.5355339059327378,0" style="fill: #7fc97f; stroke: #7fc97f; opacity: 0;"></path><path transform="translate(181.33333333333331,147.53582986592698)" d="M3.5355339059327378,0A3.5355339059327378,3.5355339059327378,0,1,1,-3.5355339059327378,0A3.5355339059327378,3.5355339059327378,0,1,1,3.5355339059327378,0" style="fill: #7fc97f; stroke: #7fc97f; opacity: 0;"></path><path transform="translate(604.4444444444445,240)" d="M3.5355339059327378,0A3.5355339059327378,3.5355339059327378,0,1,1,-3.5355339059327378,0A3.5355339059327378,3.5355339059327378,0,1,1,3.5355339059327378,0" style="fill: #7fc97f; stroke: #7fc97f; opacity: 0;"></path><path transform="translate(1088,114.41130298273157)" d="M3.5355339059327378,0A3.5355339059327378,3.5355339059327378,0,1,1,-3.5355339059327378,0A3.5355339059327378,3.5355339059327378,0,1,1,3.5355339059327378,0" style="fill: #7fc97f; stroke: #7fc97f; opacity: 0;"></path><path transform="translate(0,240)" d="M3.5355339059327378,0A3.5355339059327378,3.5355339059327378,0,1,1,-3.5355339059327378,0A3.5355339059327378,3.5355339059327378,0,1,1,3.5355339059327378,0" style="fill: #7fc97f; stroke: #7fc97f; opacity: 0;"></path><path transform="translate(120.88888888888889,240)" d="M3.5355339059327378,0A3.5355339059327378,3.5355339059327378,0,1,1,-3.5355339059327378,0A3.5355339059327378,3.5355339059327378,0,1,1,3.5355339059327378,0" style="fill: #7fc97f; stroke: #7fc97f; opacity: 0;"></path><path transform="translate(181.33333333333331,205.34796419289634)" d="M3.5355339059327378,0A3.5355339059327378,3.5355339059327378,0,1,1,-3.5355339059327378,0A3.5355339059327378,3.5355339059327378,0,1,1,3.5355339059327378,0" style="fill: #7fc97f; stroke: #7fc97f; opacity: 0;"></path><path transform="translate(362.66666666666663,183.18181818181816)" d="M3.5355339059327378,0A3.5355339059327378,3.5355339059327378,0,1,1,-3.5355339059327378,0A3.5355339059327378,3.5355339059327378,0,1,1,3.5355339059327378,0" style="fill: #7fc97f; stroke: #7fc97f; opacity: 0;"></path><path transform="translate(483.55555555555554,160.12779552715654)" d="M3.5355339059327378,0A3.5355339059327378,3.5355339059327378,0,1,1,-3.5355339059327378,0A3.5355339059327378,3.5355339059327378,0,1,1,3.5355339059327378,0" style="fill: #7fc97f; stroke: #7fc97f; opacity: 0;"></path><path transform="translate(604.4444444444445,194.40482006187918)" d="M3.5355339059327378,0A3.5355339059327378,3.5355339059327378,0,1,1,-3.5355339059327378,0A3.5355339059327378,3.5355339059327378,0,1,1,3.5355339059327378,0" style="fill: #7fc97f; stroke: #7fc97f; opacity: 0;"></path><path transform="translate(725.3333333333333,188.55778063567885)" d="M3.5355339059327378,0A3.5355339059327378,3.5355339059327378,0,1,1,-3.5355339059327378,0A3.5355339059327378,3.5355339059327378,0,1,1,3.5355339059327378,0" style="fill: #7fc97f; stroke: #7fc97f; opacity: 0;"></path><path transform="translate(846.2222222222223,176.63366336633666)" d="M3.5355339059327378,0A3.5355339059327378,3.5355339059327378,0,1,1,-3.5355339059327378,0A3.5355339059327378,3.5355339059327378,0,1,1,3.5355339059327378,0" style="fill: #7fc97f; stroke: #7fc97f; opacity: 0;"></path><path transform="translate(967.1111111111111,240)" d="M3.5355339059327378,0A3.5355339059327378,3.5355339059327378,0,1,1,-3.5355339059327378,0A3.5355339059327378,3.5355339059327378,0,1,1,3.5355339059327378,0" style="fill: #7fc97f; stroke: #7fc97f; opacity: 0;"></path><path transform="translate(1088,221.99009455200363)" d="M3.5355339059327378,0A3.5355339059327378,3.5355339059327378,0,1,1,-3.5355339059327378,0A3.5355339059327378,3.5355339059327378,0,1,1,3.5355339059327378,0" style="fill: #7fc97f; stroke: #7fc97f; opacity: 0;"></path><path transform="translate(0,240)" d="M3.5355339059327378,0A3.5355339059327378,3.5355339059327378,0,1,1,-3.5355339059327378,0A3.5355339059327378,3.5355339059327378,0,1,1,3.5355339059327378,0" style="fill: #7fc97f; stroke: #7fc97f; opacity: 0;"></path></g></g></g><g transform="translate(0,0)"><path class="background" d="M0,0h0v0h0Z" style="fill: none;"></path><g><g class="mark-line role-mark"><path d="M0,240L0,240L120.88888888888889,240L181.33333333333331,214.30131705750082L181.33333333333331,240L241.77777777777777,199.43792553962047L362.66666666666663,240L362.66666666666663,240L604.4444444444445,86.96317551410806L604.4444444444445,240L725.3333333333333,211.92489910510616L846.2222222222223,188.46688997681008L967.1111111111111,227.64097018384058L1088,240L1088,240" style="fill: none; stroke: #7fc97f; stroke-width: 0.5; opacity: 0.5;"></path></g><g class="mark-symbol role-mark"><path transform="translate(0,240)" d="M3.5355339059327378,0A3.5355339059327378,3.5355339059327378,0,1,1,-3.5355339059327378,0A3.5355339059327378,3.5355339059327378,0,1,1,3.5355339059327378,0" style="fill: #7fc97f; stroke: #7fc97f; opacity: 0;"></path><path transform="translate(181.33333333333331,214.30131705750082)" d="M3.5355339059327378,0A3.5355339059327378,3.5355339059327378,0,1,1,-3.5355339059327378,0A3.5355339059327378,3.5355339059327378,0,1,1,3.5355339059327378,0" style="fill: #7fc97f; stroke: #7fc97f; opacity: 0;"></path><path transform="translate(604.4444444444445,86.96317551410806)" d="M3.5355339059327378,0A3.5355339059327378,3.5355339059327378,0,1,1,-3.5355339059327378,0A3.5355339059327378,3.5355339059327378,0,1,1,3.5355339059327378,0" style="fill: #7fc97f; stroke: #7fc97f; opacity: 0;"></path><path transform="translate(1088,240)" d="M3.5355339059327378,0A3.5355339059327378,3.5355339059327378,0,1,1,-3.5355339059327378,0A3.5355339059327378,3.5355339059327378,0,1,1,3.5355339059327378,0" style="fill: #7fc97f; stroke: #7fc97f; opacity: 0;"></path><path transform="translate(0,240)" d="M3.5355339059327378,0A3.5355339059327378,3.5355339059327378,0,1,1,-3.5355339059327378,0A3.5355339059327378,3.5355339059327378,0,1,1,3.5355339059327378,0" style="fill: #7fc97f; stroke: #7fc97f; opacity: 0;"></path><path transform="translate(120.88888888888889,240)" d="M3.5355339059327378,0A3.5355339059327378,3.5355339059327378,0,1,1,-3.5355339059327378,0A3.5355339059327378,3.5355339059327378,0,1,1,3.5355339059327378,0" style="fill: #7fc97f; stroke: #7fc97f; opacity: 0;"></path><path transform="translate(181.33333333333331,240)" d="M3.5355339059327378,0A3.5355339059327378,3.5355339059327378,0,1,1,-3.5355339059327378,0A3.5355339059327378,3.5355339059327378,0,1,1,3.5355339059327378,0" style="fill: #7fc97f; stroke: #7fc97f; opacity: 0;"></path><path transform="translate(241.77777777777777,199.43792553962047)" d="M3.5355339059327378,0A3.5355339059327378,3.5355339059327378,0,1,1,-3.5355339059327378,0A3.5355339059327378,3.5355339059327378,0,1,1,3.5355339059327378,0" style="fill: #7fc97f; stroke: #7fc97f; opacity: 0;"></path><path transform="translate(362.66666666666663,240)" d="M3.5355339059327378,0A3.5355339059327378,3.5355339059327378,0,1,1,-3.5355339059327378,0A3.5355339059327378,3.5355339059327378,0,1,1,3.5355339059327378,0" style="fill: #7fc97f; stroke: #7fc97f; opacity: 0;"></path><path transform="translate(604.4444444444445,240)" d="M3.5355339059327378,0A3.5355339059327378,3.5355339059327378,0,1,1,-3.5355339059327378,0A3.5355339059327378,3.5355339059327378,0,1,1,3.5355339059327378,0" style="fill: #7fc97f; stroke: #7fc97f; opacity: 0;"></path><path transform="translate(725.3333333333333,211.92489910510616)" d="M3.5355339059327378,0A3.5355339059327378,3.5355339059327378,0,1,1,-3.5355339059327378,0A3.5355339059327378,3.5355339059327378,0,1,1,3.5355339059327378,0" style="fill: #7fc97f; stroke: #7fc97f; opacity: 0;"></path><path transform="translate(846.2222222222223,188.46688997681008)" d="M3.5355339059327378,0A3.5355339059327378,3.5355339059327378,0,1,1,-3.5355339059327378,0A3.5355339059327378,3.5355339059327378,0,1,1,3.5355339059327378,0" style="fill: #7fc97f; stroke: #7fc97f; opacity: 0;"></path><path transform="translate(967.1111111111111,227.64097018384058)" d="M3.5355339059327378,0A3.5355339059327378,3.5355339059327378,0,1,1,-3.5355339059327378,0A3.5355339059327378,3.5355339059327378,0,1,1,3.5355339059327378,0" style="fill: #7fc97f; stroke: #7fc97f; opacity: 0;"></path><path transform="translate(1088,240)" d="M3.5355339059327378,0A3.5355339059327378,3.5355339059327378,0,1,1,-3.5355339059327378,0A3.5355339059327378,3.5355339059327378,0,1,1,3.5355339059327378,0" style="fill: #7fc97f; stroke: #7fc97f; opacity: 0;"></path><path transform="translate(362.66666666666663,240)" d="M3.5355339059327378,0A3.5355339059327378,3.5355339059327378,0,1,1,-3.5355339059327378,0A3.5355339059327378,3.5355339059327378,0,1,1,3.5355339059327378,0" style="fill: #7fc97f; stroke: #7fc97f; opacity: 0;"></path></g></g></g><g transform="translate(0,0)"><path class="background" d="M0,0h0v0h0Z" style="fill: none;"></path><g><g class="mark-line role-mark"><path d="M0,240L0,240L120.88888888888889,240L181.33333333333331,240L181.33333333333331,240L181.33333333333331,211.41495950452597L241.77777777777777,240L362.66666666666663,240L483.55555555555554,216.4567392583873L604.4444444444445,240L604.4444444444445,240L725.3333333333333,240L846.2222222222223,240L967.1111111111111,240L1088,240L1088,227.67334360554702" style="fill: none; stroke: #7fc97f; stroke-width: 0.5; opacity: 0.5;"></path></g><g class="mark-symbol role-mark"><path transform="translate(0,240)" d="M3.5355339059327378,0A3.5355339059327378,3.5355339059327378,0,1,1,-3.5355339059327378,0A3.5355339059327378,3.5355339059327378,0,1,1,3.5355339059327378,0" style="fill: #7fc97f; stroke: #7fc97f; opacity: 0;"></path><path transform="translate(181.33333333333331,240)" d="M3.5355339059327378,0A3.5355339059327378,3.5355339059327378,0,1,1,-3.5355339059327378,0A3.5355339059327378,3.5355339059327378,0,1,1,3.5355339059327378,0" style="fill: #7fc97f; stroke: #7fc97f; opacity: 0;"></path><path transform="translate(604.4444444444445,240)" d="M3.5355339059327378,0A3.5355339059327378,3.5355339059327378,0,1,1,-3.5355339059327378,0A3.5355339059327378,3.5355339059327378,0,1,1,3.5355339059327378,0" style="fill: #7fc97f; stroke: #7fc97f; opacity: 0;"></path><path transform="translate(1088,240)" d="M3.5355339059327378,0A3.5355339059327378,3.5355339059327378,0,1,1,-3.5355339059327378,0A3.5355339059327378,3.5355339059327378,0,1,1,3.5355339059327378,0" style="fill: #7fc97f; stroke: #7fc97f; opacity: 0;"></path><path transform="translate(0,240)" d="M3.5355339059327378,0A3.5355339059327378,3.5355339059327378,0,1,1,-3.5355339059327378,0A3.5355339059327378,3.5355339059327378,0,1,1,3.5355339059327378,0" style="fill: #7fc97f; stroke: #7fc97f; opacity: 0;"></path><path transform="translate(120.88888888888889,240)" d="M3.5355339059327378,0A3.5355339059327378,3.5355339059327378,0,1,1,-3.5355339059327378,0A3.5355339059327378,3.5355339059327378,0,1,1,3.5355339059327378,0" style="fill: #7fc97f; stroke: #7fc97f; opacity: 0;"></path><path transform="translate(181.33333333333331,240)" d="M3.5355339059327378,0A3.5355339059327378,3.5355339059327378,0,1,1,-3.5355339059327378,0A3.5355339059327378,3.5355339059327378,0,1,1,3.5355339059327378,0" style="fill: #7fc97f; stroke: #7fc97f; opacity: 0;"></path><path transform="translate(241.77777777777777,240)" d="M3.5355339059327378,0A3.5355339059327378,3.5355339059327378,0,1,1,-3.5355339059327378,0A3.5355339059327378,3.5355339059327378,0,1,1,3.5355339059327378,0" style="fill: #7fc97f; stroke: #7fc97f; opacity: 0;"></path><path transform="translate(362.66666666666663,240)" d="M3.5355339059327378,0A3.5355339059327378,3.5355339059327378,0,1,1,-3.5355339059327378,0A3.5355339059327378,3.5355339059327378,0,1,1,3.5355339059327378,0" style="fill: #7fc97f; stroke: #7fc97f; opacity: 0;"></path><path transform="translate(483.55555555555554,216.4567392583873)" d="M3.5355339059327378,0A3.5355339059327378,3.5355339059327378,0,1,1,-3.5355339059327378,0A3.5355339059327378,3.5355339059327378,0,1,1,3.5355339059327378,0" style="fill: #7fc97f; stroke: #7fc97f; opacity: 0;"></path><path transform="translate(604.4444444444445,240)" d="M3.5355339059327378,0A3.5355339059327378,3.5355339059327378,0,1,1,-3.5355339059327378,0A3.5355339059327378,3.5355339059327378,0,1,1,3.5355339059327378,0" style="fill: #7fc97f; stroke: #7fc97f; opacity: 0;"></path><path transform="translate(725.3333333333333,240)" d="M3.5355339059327378,0A3.5355339059327378,3.5355339059327378,0,1,1,-3.5355339059327378,0A3.5355339059327378,3.5355339059327378,0,1,1,3.5355339059327378,0" style="fill: #7fc97f; stroke: #7fc97f; opacity: 0;"></path><path transform="translate(846.2222222222223,240)" d="M3.5355339059327378,0A3.5355339059327378,3.5355339059327378,0,1,1,-3.5355339059327378,0A3.5355339059327378,3.5355339059327378,0,1,1,3.5355339059327378,0" style="fill: #7fc97f; stroke: #7fc97f; opacity: 0;"></path><path transform="translate(967.1111111111111,240)" d="M3.5355339059327378,0A3.5355339059327378,3.5355339059327378,0,1,1,-3.5355339059327378,0A3.5355339059327378,3.5355339059327378,0,1,1,3.5355339059327378,0" style="fill: #7fc97f; stroke: #7fc97f; opacity: 0;"></path><path transform="translate(1088,227.67334360554702)" d="M3.5355339059327378,0A3.5355339059327378,3.5355339059327378,0,1,1,-3.5355339059327378,0A3.5355339059327378,3.5355339059327378,0,1,1,3.5355339059327378,0" style="fill: #7fc97f; stroke: #7fc97f; opacity: 0;"></path><path transform="translate(181.33333333333331,211.41495950452597)" d="M3.5355339059327378,0A3.5355339059327378,3.5355339059327378,0,1,1,-3.5355339059327378,0A3.5355339059327378,3.5355339059327378,0,1,1,3.5355339059327378,0" style="fill: #7fc97f; stroke: #7fc97f; opacity: 0;"></path></g></g></g><g transform="translate(0,0)"><path class="background" d="M0,0h0v0h0Z" style="fill: none;"></path><g><g class="mark-line role-mark"><path d="M0,9.082745349583092L120.88888888888889,240L181.33333333333331,207.21311475409837L181.33333333333331,240L241.77777777777777,240L362.66666666666663,128.30975428145945L483.55555555555554,102.42476354256235L604.4444444444445,135.65217391304344L604.4444444444445,93.80116959064327L725.3333333333333,173.51063829787233L967.1111111111111,240L1088,147.62124711316397" style="fill: none; stroke: #7fc97f; stroke-width: 0.5; opacity: 0.5;"></path></g><g class="mark-symbol role-mark"><path transform="translate(0,9.082745349583092)" d="M3.5355339059327378,0A3.5355339059327378,3.5355339059327378,0,1,1,-3.5355339059327378,0A3.5355339059327378,3.5355339059327378,0,1,1,3.5355339059327378,0" style="fill: #7fc97f; stroke: #7fc97f; opacity: 0;"></path><path transform="translate(181.33333333333331,207.21311475409837)" d="M3.5355339059327378,0A3.5355339059327378,3.5355339059327378,0,1,1,-3.5355339059327378,0A3.5355339059327378,3.5355339059327378,0,1,1,3.5355339059327378,0" style="fill: #7fc97f; stroke: #7fc97f; opacity: 0;"></path><path transform="translate(604.4444444444445,135.65217391304344)" d="M3.5355339059327378,0A3.5355339059327378,3.5355339059327378,0,1,1,-3.5355339059327378,0A3.5355339059327378,3.5355339059327378,0,1,1,3.5355339059327378,0" style="fill: #7fc97f; stroke: #7fc97f; opacity: 0;"></path><path transform="translate(1088,147.62124711316397)" d="M3.5355339059327378,0A3.5355339059327378,3.5355339059327378,0,1,1,-3.5355339059327378,0A3.5355339059327378,3.5355339059327378,0,1,1,3.5355339059327378,0" style="fill: #7fc97f; stroke: #7fc97f; opacity: 0;"></path><path transform="translate(120.88888888888889,240)" d="M3.5355339059327378,0A3.5355339059327378,3.5355339059327378,0,1,1,-3.5355339059327378,0A3.5355339059327378,3.5355339059327378,0,1,1,3.5355339059327378,0" style="fill: #7fc97f; stroke: #7fc97f; opacity: 0;"></path><path transform="translate(181.33333333333331,240)" d="M3.5355339059327378,0A3.5355339059327378,3.5355339059327378,0,1,1,-3.5355339059327378,0A3.5355339059327378,3.5355339059327378,0,1,1,3.5355339059327378,0" style="fill: #7fc97f; stroke: #7fc97f; opacity: 0;"></path><path transform="translate(241.77777777777777,240)" d="M3.5355339059327378,0A3.5355339059327378,3.5355339059327378,0,1,1,-3.5355339059327378,0A3.5355339059327378,3.5355339059327378,0,1,1,3.5355339059327378,0" style="fill: #7fc97f; stroke: #7fc97f; opacity: 0;"></path><path transform="translate(362.66666666666663,128.30975428145945)" d="M3.5355339059327378,0A3.5355339059327378,3.5355339059327378,0,1,1,-3.5355339059327378,0A3.5355339059327378,3.5355339059327378,0,1,1,3.5355339059327378,0" style="fill: #7fc97f; stroke: #7fc97f; opacity: 0;"></path><path transform="translate(483.55555555555554,102.42476354256235)" d="M3.5355339059327378,0A3.5355339059327378,3.5355339059327378,0,1,1,-3.5355339059327378,0A3.5355339059327378,3.5355339059327378,0,1,1,3.5355339059327378,0" style="fill: #7fc97f; stroke: #7fc97f; opacity: 0;"></path><path transform="translate(604.4444444444445,93.80116959064327)" d="M3.5355339059327378,0A3.5355339059327378,3.5355339059327378,0,1,1,-3.5355339059327378,0A3.5355339059327378,3.5355339059327378,0,1,1,3.5355339059327378,0" style="fill: #7fc97f; stroke: #7fc97f; opacity: 0;"></path><path transform="translate(725.3333333333333,173.51063829787233)" d="M3.5355339059327378,0A3.5355339059327378,3.5355339059327378,0,1,1,-3.5355339059327378,0A3.5355339059327378,3.5355339059327378,0,1,1,3.5355339059327378,0" style="fill: #7fc97f; stroke: #7fc97f; opacity: 0;"></path><path transform="translate(967.1111111111111,240)" d="M3.5355339059327378,0A3.5355339059327378,3.5355339059327378,0,1,1,-3.5355339059327378,0A3.5355339059327378,3.5355339059327378,0,1,1,3.5355339059327378,0" style="fill: #7fc97f; stroke: #7fc97f; opacity: 0;"></path></g></g></g><g transform="translate(0,0)"><path class="background" d="M0,0h0v0h0Z" style="fill: none;"></path><g><g class="mark-line role-mark"><path d="M0,240L0,240L181.33333333333331,143.6144578313253L181.33333333333331,94.19198055893077L241.77777777777777,211.7447610077702L362.66666666666663,217.1624322009706L483.55555555555554,214.91376607086863L604.4444444444445,193.61422497100892L604.4444444444445,240L725.3333333333333,240L846.2222222222223,240L1088,240L1088,223.3472106577852L1088,169.54202315047812" style="fill: none; stroke: #7fc97f; stroke-width: 0.5; opacity: 0.5;"></path></g><g class="mark-symbol role-mark"><path transform="translate(0,240)" d="M3.5355339059327378,0A3.5355339059327378,3.5355339059327378,0,1,1,-3.5355339059327378,0A3.5355339059327378,3.5355339059327378,0,1,1,3.5355339059327378,0" style="fill: #7fc97f; stroke: #7fc97f; opacity: 0;"></path><path transform="translate(181.33333333333331,143.6144578313253)" d="M3.5355339059327378,0A3.5355339059327378,3.5355339059327378,0,1,1,-3.5355339059327378,0A3.5355339059327378,3.5355339059327378,0,1,1,3.5355339059327378,0" style="fill: #7fc97f; stroke: #7fc97f; opacity: 0;"></path><path transform="translate(604.4444444444445,193.61422497100892)" d="M3.5355339059327378,0A3.5355339059327378,3.5355339059327378,0,1,1,-3.5355339059327378,0A3.5355339059327378,3.5355339059327378,0,1,1,3.5355339059327378,0" style="fill: #7fc97f; stroke: #7fc97f; opacity: 0;"></path><path transform="translate(1088,240)" d="M3.5355339059327378,0A3.5355339059327378,3.5355339059327378,0,1,1,-3.5355339059327378,0A3.5355339059327378,3.5355339059327378,0,1,1,3.5355339059327378,0" style="fill: #7fc97f; stroke: #7fc97f; opacity: 0;"></path><path transform="translate(0,240)" d="M3.5355339059327378,0A3.5355339059327378,3.5355339059327378,0,1,1,-3.5355339059327378,0A3.5355339059327378,3.5355339059327378,0,1,1,3.5355339059327378,0" style="fill: #7fc97f; stroke: #7fc97f; opacity: 0;"></path><path transform="translate(181.33333333333331,94.19198055893077)" d="M3.5355339059327378,0A3.5355339059327378,3.5355339059327378,0,1,1,-3.5355339059327378,0A3.5355339059327378,3.5355339059327378,0,1,1,3.5355339059327378,0" style="fill: #7fc97f; stroke: #7fc97f; opacity: 0;"></path><path transform="translate(241.77777777777777,211.7447610077702)" d="M3.5355339059327378,0A3.5355339059327378,3.5355339059327378,0,1,1,-3.5355339059327378,0A3.5355339059327378,3.5355339059327378,0,1,1,3.5355339059327378,0" style="fill: #7fc97f; stroke: #7fc97f; opacity: 0;"></path><path transform="translate(362.66666666666663,217.1624322009706)" d="M3.5355339059327378,0A3.5355339059327378,3.5355339059327378,0,1,1,-3.5355339059327378,0A3.5355339059327378,3.5355339059327378,0,1,1,3.5355339059327378,0" style="fill: #7fc97f; stroke: #7fc97f; opacity: 0;"></path><path transform="translate(483.55555555555554,214.91376607086863)" d="M3.5355339059327378,0A3.5355339059327378,3.5355339059327378,0,1,1,-3.5355339059327378,0A3.5355339059327378,3.5355339059327378,0,1,1,3.5355339059327378,0" style="fill: #7fc97f; stroke: #7fc97f; opacity: 0;"></path><path transform="translate(604.4444444444445,240)" d="M3.5355339059327378,0A3.5355339059327378,3.5355339059327378,0,1,1,-3.5355339059327378,0A3.5355339059327378,3.5355339059327378,0,1,1,3.5355339059327378,0" style="fill: #7fc97f; stroke: #7fc97f; opacity: 0;"></path><path transform="translate(725.3333333333333,240)" d="M3.5355339059327378,0A3.5355339059327378,3.5355339059327378,0,1,1,-3.5355339059327378,0A3.5355339059327378,3.5355339059327378,0,1,1,3.5355339059327378,0" style="fill: #7fc97f; stroke: #7fc97f; opacity: 0;"></path><path transform="translate(846.2222222222223,240)" d="M3.5355339059327378,0A3.5355339059327378,3.5355339059327378,0,1,1,-3.5355339059327378,0A3.5355339059327378,3.5355339059327378,0,1,1,3.5355339059327378,0" style="fill: #7fc97f; stroke: #7fc97f; opacity: 0;"></path><path transform="translate(1088,223.3472106577852)" d="M3.5355339059327378,0A3.5355339059327378,3.5355339059327378,0,1,1,-3.5355339059327378,0A3.5355339059327378,3.5355339059327378,0,1,1,3.5355339059327378,0" style="fill: #7fc97f; stroke: #7fc97f; opacity: 0;"></path><path transform="translate(1088,169.54202315047812)" d="M3.5355339059327378,0A3.5355339059327378,3.5355339059327378,0,1,1,-3.5355339059327378,0A3.5355339059327378,3.5355339059327378,0,1,1,3.5355339059327378,0" style="fill: #7fc97f; stroke: #7fc97f; opacity: 0;"></path></g></g></g><g transform="translate(0,0)"><path class="background" d="M0,0h0v0h0Z" style="fill: none;"></path><g><g class="mark-line role-mark"><path d="M0,240L120.88888888888889,240L362.66666666666663,218.27267789244976L483.55555555555554,53.37480559875581L604.4444444444445,11.653543307086636L725.3333333333333,86.74329501915713L846.2222222222223,25.488958990536275L1088,240" style="fill: none; stroke: #beaed4; stroke-width: 0.5; opacity: 0.5;"></path></g><g class="mark-symbol role-mark"><path transform="translate(1088,240)" d="M3.5355339059327378,0A3.5355339059327378,3.5355339059327378,0,1,1,-3.5355339059327378,0A3.5355339059327378,3.5355339059327378,0,1,1,3.5355339059327378,0" style="fill: #beaed4; stroke: #beaed4; opacity: 0;"></path><path transform="translate(0,240)" d="M3.5355339059327378,0A3.5355339059327378,3.5355339059327378,0,1,1,-3.5355339059327378,0A3.5355339059327378,3.5355339059327378,0,1,1,3.5355339059327378,0" style="fill: #beaed4; stroke: #beaed4; opacity: 0;"></path><path transform="translate(120.88888888888889,240)" d="M3.5355339059327378,0A3.5355339059327378,3.5355339059327378,0,1,1,-3.5355339059327378,0A3.5355339059327378,3.5355339059327378,0,1,1,3.5355339059327378,0" style="fill: #beaed4; stroke: #beaed4; opacity: 0;"></path><path transform="translate(362.66666666666663,218.27267789244976)" d="M3.5355339059327378,0A3.5355339059327378,3.5355339059327378,0,1,1,-3.5355339059327378,0A3.5355339059327378,3.5355339059327378,0,1,1,3.5355339059327378,0" style="fill: #beaed4; stroke: #beaed4; opacity: 0;"></path><path transform="translate(483.55555555555554,53.37480559875581)" d="M3.5355339059327378,0A3.5355339059327378,3.5355339059327378,0,1,1,-3.5355339059327378,0A3.5355339059327378,3.5355339059327378,0,1,1,3.5355339059327378,0" style="fill: #beaed4; stroke: #beaed4; opacity: 0;"></path><path transform="translate(604.4444444444445,11.653543307086636)" d="M3.5355339059327378,0A3.5355339059327378,3.5355339059327378,0,1,1,-3.5355339059327378,0A3.5355339059327378,3.5355339059327378,0,1,1,3.5355339059327378,0" style="fill: #beaed4; stroke: #beaed4; opacity: 0;"></path><path transform="translate(725.3333333333333,86.74329501915713)" d="M3.5355339059327378,0A3.5355339059327378,3.5355339059327378,0,1,1,-3.5355339059327378,0A3.5355339059327378,3.5355339059327378,0,1,1,3.5355339059327378,0" style="fill: #beaed4; stroke: #beaed4; opacity: 0;"></path><path transform="translate(846.2222222222223,25.488958990536275)" d="M3.5355339059327378,0A3.5355339059327378,3.5355339059327378,0,1,1,-3.5355339059327378,0A3.5355339059327378,3.5355339059327378,0,1,1,3.5355339059327378,0" style="fill: #beaed4; stroke: #beaed4; opacity: 0;"></path></g></g></g><g transform="translate(0,0)"><path class="background" d="M0,0h0v0h0Z" style="fill: none;"></path><g><g class="mark-line role-mark"><path d="M0,240L120.88888888888889,31.609542089388526L241.77777777777777,217.8516057585825L362.66666666666663,240L483.55555555555554,240L604.4444444444445,240L725.3333333333333,240L846.2222222222223,240L967.1111111111111,240L1088,240L1088,240" style="fill: none; stroke: #beaed4; stroke-width: 0.5; opacity: 0.5;"></path></g><g class="mark-symbol role-mark"><path transform="translate(1088,240)" d="M3.5355339059327378,0A3.5355339059327378,3.5355339059327378,0,1,1,-3.5355339059327378,0A3.5355339059327378,3.5355339059327378,0,1,1,3.5355339059327378,0" style="fill: #beaed4; stroke: #beaed4; opacity: 0;"></path><path transform="translate(0,240)" d="M3.5355339059327378,0A3.5355339059327378,3.5355339059327378,0,1,1,-3.5355339059327378,0A3.5355339059327378,3.5355339059327378,0,1,1,3.5355339059327378,0" style="fill: #beaed4; stroke: #beaed4; opacity: 0;"></path><path transform="translate(120.88888888888889,31.609542089388526)" d="M3.5355339059327378,0A3.5355339059327378,3.5355339059327378,0,1,1,-3.5355339059327378,0A3.5355339059327378,3.5355339059327378,0,1,1,3.5355339059327378,0" style="fill: #beaed4; stroke: #beaed4; opacity: 0;"></path><path transform="translate(241.77777777777777,217.8516057585825)" d="M3.5355339059327378,0A3.5355339059327378,3.5355339059327378,0,1,1,-3.5355339059327378,0A3.5355339059327378,3.5355339059327378,0,1,1,3.5355339059327378,0" style="fill: #beaed4; stroke: #beaed4; opacity: 0;"></path><path transform="translate(362.66666666666663,240)" d="M3.5355339059327378,0A3.5355339059327378,3.5355339059327378,0,1,1,-3.5355339059327378,0A3.5355339059327378,3.5355339059327378,0,1,1,3.5355339059327378,0" style="fill: #beaed4; stroke: #beaed4; opacity: 0;"></path><path transform="translate(483.55555555555554,240)" d="M3.5355339059327378,0A3.5355339059327378,3.5355339059327378,0,1,1,-3.5355339059327378,0A3.5355339059327378,3.5355339059327378,0,1,1,3.5355339059327378,0" style="fill: #beaed4; stroke: #beaed4; opacity: 0;"></path><path transform="translate(604.4444444444445,240)" d="M3.5355339059327378,0A3.5355339059327378,3.5355339059327378,0,1,1,-3.5355339059327378,0A3.5355339059327378,3.5355339059327378,0,1,1,3.5355339059327378,0" style="fill: #beaed4; stroke: #beaed4; opacity: 0;"></path><path transform="translate(725.3333333333333,240)" d="M3.5355339059327378,0A3.5355339059327378,3.5355339059327378,0,1,1,-3.5355339059327378,0A3.5355339059327378,3.5355339059327378,0,1,1,3.5355339059327378,0" style="fill: #beaed4; stroke: #beaed4; opacity: 0;"></path><path transform="translate(846.2222222222223,240)" d="M3.5355339059327378,0A3.5355339059327378,3.5355339059327378,0,1,1,-3.5355339059327378,0A3.5355339059327378,3.5355339059327378,0,1,1,3.5355339059327378,0" style="fill: #beaed4; stroke: #beaed4; opacity: 0;"></path><path transform="translate(967.1111111111111,240)" d="M3.5355339059327378,0A3.5355339059327378,3.5355339059327378,0,1,1,-3.5355339059327378,0A3.5355339059327378,3.5355339059327378,0,1,1,3.5355339059327378,0" style="fill: #beaed4; stroke: #beaed4; opacity: 0;"></path><path transform="translate(1088,240)" d="M3.5355339059327378,0A3.5355339059327378,3.5355339059327378,0,1,1,-3.5355339059327378,0A3.5355339059327378,3.5355339059327378,0,1,1,3.5355339059327378,0" style="fill: #beaed4; stroke: #beaed4; opacity: 0;"></path></g></g></g><g transform="translate(0,0)"><path class="background" d="M0,0h0v0h0Z" style="fill: none;"></path><g><g class="mark-line role-mark"><path d="M0,240L120.88888888888889,240L241.77777777777777,240L362.66666666666663,240L483.55555555555554,240L604.4444444444445,240L725.3333333333333,240L846.2222222222223,240L967.1111111111111,240L1088,240L1088,240" style="fill: none; stroke: #beaed4; stroke-width: 0.5; opacity: 0.5;"></path></g><g class="mark-symbol role-mark"><path transform="translate(1088,240)" d="M3.5355339059327378,0A3.5355339059327378,3.5355339059327378,0,1,1,-3.5355339059327378,0A3.5355339059327378,3.5355339059327378,0,1,1,3.5355339059327378,0" style="fill: #beaed4; stroke: #beaed4; opacity: 0;"></path><path transform="translate(0,240)" d="M3.5355339059327378,0A3.5355339059327378,3.5355339059327378,0,1,1,-3.5355339059327378,0A3.5355339059327378,3.5355339059327378,0,1,1,3.5355339059327378,0" style="fill: #beaed4; stroke: #beaed4; opacity: 0;"></path><path transform="translate(120.88888888888889,240)" d="M3.5355339059327378,0A3.5355339059327378,3.5355339059327378,0,1,1,-3.5355339059327378,0A3.5355339059327378,3.5355339059327378,0,1,1,3.5355339059327378,0" style="fill: #beaed4; stroke: #beaed4; opacity: 0;"></path><path transform="translate(241.77777777777777,240)" d="M3.5355339059327378,0A3.5355339059327378,3.5355339059327378,0,1,1,-3.5355339059327378,0A3.5355339059327378,3.5355339059327378,0,1,1,3.5355339059327378,0" style="fill: #beaed4; stroke: #beaed4; opacity: 0;"></path><path transform="translate(362.66666666666663,240)" d="M3.5355339059327378,0A3.5355339059327378,3.5355339059327378,0,1,1,-3.5355339059327378,0A3.5355339059327378,3.5355339059327378,0,1,1,3.5355339059327378,0" style="fill: #beaed4; stroke: #beaed4; opacity: 0;"></path><path transform="translate(483.55555555555554,240)" d="M3.5355339059327378,0A3.5355339059327378,3.5355339059327378,0,1,1,-3.5355339059327378,0A3.5355339059327378,3.5355339059327378,0,1,1,3.5355339059327378,0" style="fill: #beaed4; stroke: #beaed4; opacity: 0;"></path><path transform="translate(604.4444444444445,240)" d="M3.5355339059327378,0A3.5355339059327378,3.5355339059327378,0,1,1,-3.5355339059327378,0A3.5355339059327378,3.5355339059327378,0,1,1,3.5355339059327378,0" style="fill: #beaed4; stroke: #beaed4; opacity: 0;"></path><path transform="translate(725.3333333333333,240)" d="M3.5355339059327378,0A3.5355339059327378,3.5355339059327378,0,1,1,-3.5355339059327378,0A3.5355339059327378,3.5355339059327378,0,1,1,3.5355339059327378,0" style="fill: #beaed4; stroke: #beaed4; opacity: 0;"></path><path transform="translate(846.2222222222223,240)" d="M3.5355339059327378,0A3.5355339059327378,3.5355339059327378,0,1,1,-3.5355339059327378,0A3.5355339059327378,3.5355339059327378,0,1,1,3.5355339059327378,0" style="fill: #beaed4; stroke: #beaed4; opacity: 0;"></path><path transform="translate(967.1111111111111,240)" d="M3.5355339059327378,0A3.5355339059327378,3.5355339059327378,0,1,1,-3.5355339059327378,0A3.5355339059327378,3.5355339059327378,0,1,1,3.5355339059327378,0" style="fill: #beaed4; stroke: #beaed4; opacity: 0;"></path><path transform="translate(1088,240)" d="M3.5355339059327378,0A3.5355339059327378,3.5355339059327378,0,1,1,-3.5355339059327378,0A3.5355339059327378,3.5355339059327378,0,1,1,3.5355339059327378,0" style="fill: #beaed4; stroke: #beaed4; opacity: 0;"></path></g></g></g><g transform="translate(0,0)"><path class="background" d="M0,0h0v0h0Z" style="fill: none;"></path><g><g class="mark-line role-mark"><path d="M0,240L120.88888888888889,240L241.77777777777777,240L483.55555555555554,240L604.4444444444445,240L725.3333333333333,240L1088,240" style="fill: none; stroke: #beaed4; stroke-width: 0.5; opacity: 0.5;"></path></g><g class="mark-symbol role-mark"><path transform="translate(1088,240)" d="M3.5355339059327378,0A3.5355339059327378,3.5355339059327378,0,1,1,-3.5355339059327378,0A3.5355339059327378,3.5355339059327378,0,1,1,3.5355339059327378,0" style="fill: #beaed4; stroke: #beaed4; opacity: 0;"></path><path transform="translate(0,240)" d="M3.5355339059327378,0A3.5355339059327378,3.5355339059327378,0,1,1,-3.5355339059327378,0A3.5355339059327378,3.5355339059327378,0,1,1,3.5355339059327378,0" style="fill: #beaed4; stroke: #beaed4; opacity: 0;"></path><path transform="translate(120.88888888888889,240)" d="M3.5355339059327378,0A3.5355339059327378,3.5355339059327378,0,1,1,-3.5355339059327378,0A3.5355339059327378,3.5355339059327378,0,1,1,3.5355339059327378,0" style="fill: #beaed4; stroke: #beaed4; opacity: 0;"></path><path transform="translate(241.77777777777777,240)" d="M3.5355339059327378,0A3.5355339059327378,3.5355339059327378,0,1,1,-3.5355339059327378,0A3.5355339059327378,3.5355339059327378,0,1,1,3.5355339059327378,0" style="fill: #beaed4; stroke: #beaed4; opacity: 0;"></path><path transform="translate(483.55555555555554,240)" d="M3.5355339059327378,0A3.5355339059327378,3.5355339059327378,0,1,1,-3.5355339059327378,0A3.5355339059327378,3.5355339059327378,0,1,1,3.5355339059327378,0" style="fill: #beaed4; stroke: #beaed4; opacity: 0;"></path><path transform="translate(604.4444444444445,240)" d="M3.5355339059327378,0A3.5355339059327378,3.5355339059327378,0,1,1,-3.5355339059327378,0A3.5355339059327378,3.5355339059327378,0,1,1,3.5355339059327378,0" style="fill: #beaed4; stroke: #beaed4; opacity: 0;"></path><path transform="translate(725.3333333333333,240)" d="M3.5355339059327378,0A3.5355339059327378,3.5355339059327378,0,1,1,-3.5355339059327378,0A3.5355339059327378,3.5355339059327378,0,1,1,3.5355339059327378,0" style="fill: #beaed4; stroke: #beaed4; opacity: 0;"></path></g></g></g><g transform="translate(0,0)"><path class="background" d="M0,0h0v0h0Z" style="fill: none;"></path><g><g class="mark-line role-mark"><path d="M120.88888888888889,240L241.77777777777777,240L362.66666666666663,240L483.55555555555554,195.9834938101788L604.4444444444445,240L725.3333333333333,72.91562238930658L1088,31.27134724857683" style="fill: none; stroke: #beaed4; stroke-width: 0.5; opacity: 0.5;"></path></g><g class="mark-symbol role-mark"><path transform="translate(1088,31.27134724857683)" d="M3.5355339059327378,0A3.5355339059327378,3.5355339059327378,0,1,1,-3.5355339059327378,0A3.5355339059327378,3.5355339059327378,0,1,1,3.5355339059327378,0" style="fill: #beaed4; stroke: #beaed4; opacity: 0;"></path><path transform="translate(120.88888888888889,240)" d="M3.5355339059327378,0A3.5355339059327378,3.5355339059327378,0,1,1,-3.5355339059327378,0A3.5355339059327378,3.5355339059327378,0,1,1,3.5355339059327378,0" style="fill: #beaed4; stroke: #beaed4; opacity: 0;"></path><path transform="translate(241.77777777777777,240)" d="M3.5355339059327378,0A3.5355339059327378,3.5355339059327378,0,1,1,-3.5355339059327378,0A3.5355339059327378,3.5355339059327378,0,1,1,3.5355339059327378,0" style="fill: #beaed4; stroke: #beaed4; opacity: 0;"></path><path transform="translate(362.66666666666663,240)" d="M3.5355339059327378,0A3.5355339059327378,3.5355339059327378,0,1,1,-3.5355339059327378,0A3.5355339059327378,3.5355339059327378,0,1,1,3.5355339059327378,0" style="fill: #beaed4; stroke: #beaed4; opacity: 0;"></path><path transform="translate(483.55555555555554,195.9834938101788)" d="M3.5355339059327378,0A3.5355339059327378,3.5355339059327378,0,1,1,-3.5355339059327378,0A3.5355339059327378,3.5355339059327378,0,1,1,3.5355339059327378,0" style="fill: #beaed4; stroke: #beaed4; opacity: 0;"></path><path transform="translate(604.4444444444445,240)" d="M3.5355339059327378,0A3.5355339059327378,3.5355339059327378,0,1,1,-3.5355339059327378,0A3.5355339059327378,3.5355339059327378,0,1,1,3.5355339059327378,0" style="fill: #beaed4; stroke: #beaed4; opacity: 0;"></path><path transform="translate(725.3333333333333,72.91562238930658)" d="M3.5355339059327378,0A3.5355339059327378,3.5355339059327378,0,1,1,-3.5355339059327378,0A3.5355339059327378,3.5355339059327378,0,1,1,3.5355339059327378,0" style="fill: #beaed4; stroke: #beaed4; opacity: 0;"></path></g></g></g></g><g class="mark-group role-legend"><g transform="translate(1110,0)"><path class="background" d="M0,0h86v45h-86Z" style="pointer-events: none; fill: none;"></path><g><g class="mark-group role-legend-entry"><g transform="translate(0,16)"><path class="background" d="M0,0h0v0h0Z" style="pointer-events: none; fill: none;"></path><g><g class="mark-group role-scope"><g transform="translate(0,0)"><path class="background" d="M0,0h59.2412109375v13h-59.2412109375Z" style="pointer-events: none; fill: none; opacity: 1;"></path><g><g class="mark-symbol role-legend-symbol legendSymbol"><path transform="translate(6,6)" d="M5,0A5,5,0,1,1,-5,0A5,5,0,1,1,5,0" style="fill: none; stroke: #7fc97f; stroke-width: 2; opacity: 1;"></path></g><g class="mark-text role-legend-label legendLabel"><text text-anchor="start" transform="translate(16,9)" style="font-family: sans-serif; font-size: 10px; fill: #000; opacity: 1;">treatment</text></g></g></g><g transform="translate(0,16)"><path class="background" d="M0,0h59.2412109375v13h-59.2412109375Z" style="pointer-events: none; fill: none; opacity: 1;"></path><g><g class="mark-symbol role-legend-symbol legendSymbol"><path transform="translate(6,6)" d="M5,0A5,5,0,1,1,-5,0A5,5,0,1,1,5,0" style="fill: none; stroke: #beaed4; stroke-width: 2; opacity: 1;"></path></g><g class="mark-text role-legend-label legendLabel"><text text-anchor="start" transform="translate(16,9)" style="font-family: sans-serif; font-size: 10px; fill: #000; opacity: 1;">control</text></g></g></g></g></g></g></g><g class="mark-text role-legend-title" style="pointer-events: none;"><text text-anchor="start" transform="translate(0,9)" style="font-family: sans-serif; font-size: 11px; font-weight: bold; fill: #000; opacity: 1;">treatment-group</text></g></g></g></g></g></g></g><g class="mark-text role-title" style="pointer-events: none;"><text text-anchor="middle" transform="translate(571.32275390625,-13)" style="font-family: sans-serif; font-size: 13px; font-weight: bold; fill: #000; opacity: 1;">d__Bacteria;p__Bacteroidota;c__Bacteroidia;o__Bacteroidales;f__Marinifilaceae;g__Odoribacter</text></g></g></g></g></g></svg>