<svg class="marks" width="1250" height="459" viewBox="0 0 1250 459" version="1.1" xmlns="http://www.w3.org/2000/svg" xmlns:xlink="http://www.w3.org/1999/xlink"><rect width="1250" height="459" style="fill: #FFFFFF;"></rect><g transform="translate(31,24)"><g class="mark-group role-frame root"><g transform="translate(0,0)"><path class="background" d="M0,0h1131v0h-1131Z" style="fill: none;"></path><g><g class="mark-group role-scope controlChart"><g transform="translate(0,0)"><path class="background" d="M0,0hNaNv400hNaNZ" style="fill: none;"></path><g><g class="mark-group role-axis"><g transform="translate(0.5,400.5)"><path class="background" d="M0,0h0v0h0Z" style="pointer-events: none; fill: none;"></path><g><g class="mark-rule role-axis-tick" style="pointer-events: none;"><line transform="translate(0,0)" x2="0" y2="5" style="fill: none; stroke: #888; stroke-width: 1; opacity: 1;"></line><line transform="translate(126,0)" x2="0" y2="5" style="fill: none; stroke: #888; stroke-width: 1; opacity: 1;"></line><line transform="translate(251,0)" x2="0" y2="5" style="fill: none; stroke: #888; stroke-width: 1; opacity: 1;"></line><line transform="translate(377,0)" x2="0" y2="5" style="fill: none; stroke: #888; stroke-width: 1; opacity: 1;"></line><line transform="translate(503,0)" x2="0" y2="5" style="fill: none; stroke: #888; stroke-width: 1; opacity: 1;"></line><line transform="translate(628,0)" x2="0" y2="5" style="fill: none; stroke: #888; stroke-width: 1; opacity: 1;"></line><line transform="translate(754,0)" x2="0" y2="5" style="fill: none; stroke: #888; stroke-width: 1; opacity: 1;"></line><line transform="translate(880,0)" x2="0" y2="5" style="fill: none; stroke: #888; stroke-width: 1; opacity: 1;"></line><line transform="translate(1005,0)" x2="0" y2="5" style="fill: none; stroke: #888; stroke-width: 1; opacity: 1;"></line><line transform="translate(1131,0)" x2="0" y2="5" style="fill: none; stroke: #888; stroke-width: 1; opacity: 1;"></line></g><g class="mark-text role-axis-label" style="pointer-events: none;"><text text-anchor="middle" transform="translate(0,15)" style="font-family: sans-serif; font-size: 10px; fill: #000; opacity: 1;">0</text><text text-anchor="middle" transform="translate(125.66666666666666,15)" style="font-family: sans-serif; font-size: 10px; fill: #000; opacity: 1;">2</text><text text-anchor="middle" transform="translate(251.33333333333331,15)" style="font-family: sans-serif; font-size: 10px; fill: #000; opacity: 1;">4</text><text text-anchor="middle" transform="translate(377,15)" style="font-family: sans-serif; font-size: 10px; fill: #000; opacity: 1;">6</text><text text-anchor="middle" transform="translate(502.66666666666663,15)" style="font-family: sans-serif; font-size: 10px; fill: #000; opacity: 1;">8</text><text text-anchor="middle" transform="translate(628.3333333333334,15)" style="font-family: sans-serif; font-size: 10px; fill: #000; opacity: 1;">10</text><text text-anchor="middle" transform="translate(754,15)" style="font-family: sans-serif; font-size: 10px; fill: #000; opacity: 1;">12</text><text text-anchor="middle" transform="translate(879.6666666666666,15)" style="font-family: sans-serif; font-size: 10px; fill: #000; opacity: 1;">14</text><text text-anchor="middle" transform="translate(1005.3333333333333,15)" style="font-family: sans-serif; font-size: 10px; fill: #000; opacity: 1;">16</text><text text-anchor="middle" transform="translate(1131,15)" style="font-family: sans-serif; font-size: 10px; fill: #000; opacity: 1;">18</text></g><g class="mark-rule role-axis-domain" style="pointer-events: none;"><line transform="translate(0,0)" x2="1131" y2="0" style="fill: none; stroke: #888; stroke-width: 1; opacity: 1;"></line></g><g class="mark-text role-axis-title" style="pointer-events: none;"><text text-anchor="middle" transform="translate(565.5,31)" style="font-family: sans-serif; font-size: 11px; font-weight: bold; fill: #000; opacity: 1;">week</text></g></g></g></g><g class="mark-group role-axis"><g transform="translate(0.5,0.5)"><path class="background" d="M0,0h0v0h0Z" style="pointer-events: none; fill: none;"></path><g><g class="mark-rule role-axis-tick" style="pointer-events: none;"><line transform="translate(0,400)" x2="-5" y2="0" style="fill: none; stroke: #888; stroke-width: 1; opacity: 1;"></line><line transform="translate(0,350)" x2="-5" y2="0" style="fill: none; stroke: #888; stroke-width: 1; opacity: 1;"></line><line transform="translate(0,300)" x2="-5" y2="0" style="fill: none; stroke: #888; stroke-width: 1; opacity: 1;"></line><line transform="translate(0,250)" x2="-5" y2="0" style="fill: none; stroke: #888; stroke-width: 1; opacity: 1;"></line><line transform="translate(0,200)" x2="-5" y2="0" style="fill: none; stroke: #888; stroke-width: 1; opacity: 1;"></line><line transform="translate(0,150)" x2="-5" y2="0" style="fill: none; stroke: #888; stroke-width: 1; opacity: 1;"></line><line transform="translate(0,100)" x2="-5" y2="0" style="fill: none; stroke: #888; stroke-width: 1; opacity: 1;"></line><line transform="translate(0,50)" x2="-5" y2="0" style="fill: none; stroke: #888; stroke-width: 1; opacity: 1;"></line><line transform="translate(0,0)" x2="-5" y2="0" style="fill: none; stroke: #888; stroke-width: 1; opacity: 1;"></line></g><g class="mark-text role-axis-label" style="pointer-events: none;"><text text-anchor="end" transform="translate(-7,403)" style="font-family: sans-serif; font-size: 10px; fill: #000; opacity: 1;">0</text><text text-anchor="end" transform="translate(-7,353)" style="font-family: sans-serif; font-size: 10px; fill: #000; opacity: 1;">1</text><text text-anchor="end" transform="translate(-7,303)" style="font-family: sans-serif; font-size: 10px; fill: #000; opacity: 1;">2</text><text text-anchor="end" transform="translate(-7,253)" style="font-family: sans-serif; font-size: 10px; fill: #000; opacity: 1;">3</text><text text-anchor="end" transform="translate(-7,203)" style="font-family: sans-serif; font-size: 10px; fill: #000; opacity: 1;">4</text><text text-anchor="end" transform="translate(-7,153)" style="font-family: sans-serif; font-size: 10px; fill: #000; opacity: 1;">5</text><text text-anchor="end" transform="translate(-7,103)" style="font-family: sans-serif; font-size: 10px; fill: #000; opacity: 1;">6</text><text text-anchor="end" transform="translate(-7,53)" style="font-family: sans-serif; font-size: 10px; fill: #000; opacity: 1;">7</text><text text-anchor="end" transform="translate(-7,3)" style="font-family: sans-serif; font-size: 10px; fill: #000; opacity: 1;">8</text></g><g class="mark-rule role-axis-domain" style="pointer-events: none;"><line transform="translate(0,400)" x2="0" y2="-400" style="fill: none; stroke: #888; stroke-width: 1; opacity: 1;"></line></g><g class="mark-text role-axis-title" style="pointer-events: none;"><text text-anchor="middle" transform="translate(-17.5615234375,200) rotate(-90) translate(0,-2)" style="font-family: sans-serif; font-size: 11px; font-weight: bold; fill: #000; opacity: 1;">Metric Column</text></g></g></g></g><g class="mark-rule role-mark"><line transform="translate(0,194.37992694284043)" x2="1131" y2="0" style="fill: none; stroke: #000; stroke-opacity: 0; stroke-width: 2;"></line></g><g class="mark-rule role-mark"><line transform="translate(0,342.7682291383855)" x2="1131" y2="0" style="fill: none; stroke: #000; stroke-opacity: 0; stroke-width: 2; stroke-dasharray: 8,8;"></line></g><g class="mark-rule role-mark"><line transform="translate(0,293.30546173987045)" x2="1131" y2="0" style="fill: none; stroke: #000; stroke-opacity: 0; stroke-width: 2; stroke-dasharray: 6,2;"></line></g><g class="mark-rule role-mark"><line transform="translate(0,95.4543921458104)" x2="1131" y2="0" style="fill: none; stroke: #000; stroke-opacity: 0; stroke-width: 2; stroke-dasharray: 8,8;"></line></g><g class="mark-rule role-mark"><line transform="translate(0,45.99162474729536)" x2="1131" y2="0" style="fill: none; stroke: #000; stroke-opacity: 0; stroke-width: 2; stroke-dasharray: 6,2;"></line></g><g class="mark-group role-scope"><g transform="translate(0,0)"><path class="background" d="M0,0h0v0h0Z" style="fill: none;"></path><g><g class="mark-line role-mark"><path d="M0,184.49316746479207L188.5,155.6887207751455L628.3333333333334,160.03617938976734L1131,146.21085981548356" style="fill: none; stroke: #7fc97f; stroke-width: 3; opacity: 1;"></path></g><g class="mark-symbol role-mark"><path transform="translate(0,184.49316746479207)" d="M3.5355339059327378,0A3.5355339059327378,3.5355339059327378,0,1,1,-3.5355339059327378,0A3.5355339059327378,3.5355339059327378,0,1,1,3.5355339059327378,0" style="fill: #7fc97f; stroke: #7fc97f; opacity: 0;"></path><path transform="translate(188.5,155.6887207751455)" d="M3.5355339059327378,0A3.5355339059327378,3.5355339059327378,0,1,1,-3.5355339059327378,0A3.5355339059327378,3.5355339059327378,0,1,1,3.5355339059327378,0" style="fill: #7fc97f; stroke: #7fc97f; opacity: 0;"></path><path transform="translate(628.3333333333334,160.03617938976734)" d="M3.5355339059327378,0A3.5355339059327378,3.5355339059327378,0,1,1,-3.5355339059327378,0A3.5355339059327378,3.5355339059327378,0,1,1,3.5355339059327378,0" style="fill: #7fc97f; stroke: #7fc97f; opacity: 0;"></path><path transform="translate(1131,146.21085981548356)" d="M3.5355339059327378,0A3.5355339059327378,3.5355339059327378,0,1,1,-3.5355339059327378,0A3.5355339059327378,3.5355339059327378,0,1,1,3.5355339059327378,0" style="fill: #7fc97f; stroke: #7fc97f; opacity: 0;"></path></g><g class="mark-rect role-mark"><path d="M0,159.09784235808098h2v63.191622553648926h-2Z" style="fill: #7fc97f; opacity: 0;"></path><path d="M188.5,141.17948068269726h2v28.122105407464176h-2Z" style="fill: #7fc97f; opacity: 0;"></path><path d="M628.3333333333334,140.19454439656045h2v41.20507979468198h-2Z" style="fill: #7fc97f; opacity: 0;"></path><path d="M1131,134.2736118171502h2v24.778847983634336h-2Z" style="fill: #7fc97f; opacity: 0;"></path></g></g></g><g transform="translate(0,0)"><path class="background" d="M0,0h0v0h0Z" style="fill: none;"></path><g><g class="mark-line role-mark"><path d="M0,235.1953192126893L125.66666666666666,228.7654601191123L188.5,231.32208441175436L251.33333333333331,196.77343306927617L377,186.1439548064288L502.66666666666663,183.96683127611394L628.3333333333334,193.28719837464274L754,194.86798396969144L879.6666666666666,206.53722172161514L1005.3333333333333,226.43629251759933L1131,195.57615795445918" style="fill: none; stroke: #beaed4; stroke-width: 3; opacity: 1;"></path></g><g class="mark-symbol role-mark"><path transform="translate(0,235.1953192126893)" d="M3.5355339059327378,0A3.5355339059327378,3.5355339059327378,0,1,1,-3.5355339059327378,0A3.5355339059327378,3.5355339059327378,0,1,1,3.5355339059327378,0" style="fill: #beaed4; stroke: #beaed4; opacity: 0;"></path><path transform="translate(125.66666666666666,228.7654601191123)" d="M3.5355339059327378,0A3.5355339059327378,3.5355339059327378,0,1,1,-3.5355339059327378,0A3.5355339059327378,3.5355339059327378,0,1,1,3.5355339059327378,0" style="fill: #beaed4; stroke: #beaed4; opacity: 0;"></path><path transform="translate(188.5,231.32208441175436)" d="M3.5355339059327378,0A3.5355339059327378,3.5355339059327378,0,1,1,-3.5355339059327378,0A3.5355339059327378,3.5355339059327378,0,1,1,3.5355339059327378,0" style="fill: #beaed4; stroke: #beaed4; opacity: 0;"></path><path transform="translate(377,186.1439548064288)" d="M3.5355339059327378,0A3.5355339059327378,3.5355339059327378,0,1,1,-3.5355339059327378,0A3.5355339059327378,3.5355339059327378,0,1,1,3.5355339059327378,0" style="fill: #beaed4; stroke: #beaed4; opacity: 0;"></path><path transform="translate(502.66666666666663,183.96683127611394)" d="M3.5355339059327378,0A3.5355339059327378,3.5355339059327378,0,1,1,-3.5355339059327378,0A3.5355339059327378,3.5355339059327378,0,1,1,3.5355339059327378,0" style="fill: #beaed4; stroke: #beaed4; opacity: 0;"></path><path transform="translate(628.3333333333334,193.28719837464274)" d="M3.5355339059327378,0A3.5355339059327378,3.5355339059327378,0,1,1,-3.5355339059327378,0A3.5355339059327378,3.5355339059327378,0,1,1,3.5355339059327378,0" style="fill: #beaed4; stroke: #beaed4; opacity: 0;"></path><path transform="translate(754,194.86798396969144)" d="M3.5355339059327378,0A3.5355339059327378,3.5355339059327378,0,1,1,-3.5355339059327378,0A3.5355339059327378,3.5355339059327378,0,1,1,3.5355339059327378,0" style="fill: #beaed4; stroke: #beaed4; opacity: 0;"></path><path transform="translate(879.6666666666666,206.53722172161514)" d="M3.5355339059327378,0A3.5355339059327378,3.5355339059327378,0,1,1,-3.5355339059327378,0A3.5355339059327378,3.5355339059327378,0,1,1,3.5355339059327378,0" style="fill: #beaed4; stroke: #beaed4; opacity: 0;"></path><path transform="translate(1005.3333333333333,226.43629251759933)" d="M3.5355339059327378,0A3.5355339059327378,3.5355339059327378,0,1,1,-3.5355339059327378,0A3.5355339059327378,3.5355339059327378,0,1,1,3.5355339059327378,0" style="fill: #beaed4; stroke: #beaed4; opacity: 0;"></path><path transform="translate(1131,195.57615795445918)" d="M3.5355339059327378,0A3.5355339059327378,3.5355339059327378,0,1,1,-3.5355339059327378,0A3.5355339059327378,3.5355339059327378,0,1,1,3.5355339059327378,0" style="fill: #beaed4; stroke: #beaed4; opacity: 0;"></path><path transform="translate(251.33333333333331,196.77343306927617)" d="M3.5355339059327378,0A3.5355339059327378,3.5355339059327378,0,1,1,-3.5355339059327378,0A3.5355339059327378,3.5355339059327378,0,1,1,3.5355339059327378,0" style="fill: #beaed4; stroke: #beaed4; opacity: 0;"></path></g><g class="mark-rect role-mark"><path d="M0,204.0683867529151h2v60.96441446544134h-2Z" style="fill: #beaed4; opacity: 0;"></path><path d="M125.66666666666666,189.9688356008042h2v76.61721809678926h-2Z" style="fill: #beaed4; opacity: 0;"></path><path d="M188.5,198.8402488438959h2v62.44778300413316h-2Z" style="fill: #beaed4; opacity: 0;"></path><path d="M377,167.53229357808857h2v43.73623284301061h-2Z" style="fill: #beaed4; opacity: 0;"></path><path d="M502.66666666666663,164.50826646627763h2v42.473054048555866h-2Z" style="fill: #beaed4; opacity: 0;"></path><path d="M628.3333333333334,168.07014482022765h2v54.034232366354416h-2Z" style="fill: #beaed4; opacity: 0;"></path><path d="M754,165.54061799937986h2v62.874669160296406h-2Z" style="fill: #beaed4; opacity: 0;"></path><path d="M879.6666666666666,170.6948532557082h2v76.38212161018149h-2Z" style="fill: #beaed4; opacity: 0;"></path><path d="M1005.3333333333333,186.6504780055212h2v84.75392865465503h-2Z" style="fill: #beaed4; opacity: 0;"></path><path d="M1131,168.33370790404314h2v47.828491033966145h-2Z" style="fill: #beaed4; opacity: 0;"></path><path d="M251.33333333333331,176.7254001413272h2v40.22839692177811h-2Z" style="fill: #beaed4; opacity: 0;"></path></g></g></g></g><g class="mark-group role-scope"><g transform="translate(0,0)"><path class="background" d="M0,0h0v0h0Z" style="fill: none;"></path><g><g class="mark-line role-mark"><path d="M0,173.87165887177588L0,285.75833937929417L0,296.6137637543332L125.66666666666666,293.797932532643L188.5,163.14622929181172L188.5,205.26068265858711L377,177.05093498782625L502.66666666666663,159.05783016737206L628.3333333333334,140.96730161526654L628.3333333333334,174.85459276111976L754,141.7936167440791L879.6666666666666,161.00954131871367L1005.3333333333333,166.05015996636544L1131,146.78538217809353L1131,227.73704906769316" style="fill: none; stroke: #7fc97f; stroke-width: 0.5; opacity: 0.5;"></path></g><g class="mark-symbol role-mark"><path transform="translate(0,173.87165887177588)" d="M3.5355339059327378,0A3.5355339059327378,3.5355339059327378,0,1,1,-3.5355339059327378,0A3.5355339059327378,3.5355339059327378,0,1,1,3.5355339059327378,0" style="fill: #7fc97f; stroke: #7fc97f; opacity: 0;"></path><path transform="translate(188.5,163.14622929181172)" d="M3.5355339059327378,0A3.5355339059327378,3.5355339059327378,0,1,1,-3.5355339059327378,0A3.5355339059327378,3.5355339059327378,0,1,1,3.5355339059327378,0" style="fill: #7fc97f; stroke: #7fc97f; opacity: 0;"></path><path transform="translate(628.3333333333334,140.96730161526654)" d="M3.5355339059327378,0A3.5355339059327378,3.5355339059327378,0,1,1,-3.5355339059327378,0A3.5355339059327378,3.5355339059327378,0,1,1,3.5355339059327378,0" style="fill: #7fc97f; stroke: #7fc97f; opacity: 0;"></path><path transform="translate(1131,146.78538217809353)" d="M3.5355339059327378,0A3.5355339059327378,3.5355339059327378,0,1,1,-3.5355339059327378,0A3.5355339059327378,3.5355339059327378,0,1,1,3.5355339059327378,0" style="fill: #7fc97f; stroke: #7fc97f; opacity: 0;"></path><path transform="translate(0,285.75833937929417)" d="M3.5355339059327378,0A3.5355339059327378,3.5355339059327378,0,1,1,-3.5355339059327378,0A3.5355339059327378,3.5355339059327378,0,1,1,3.5355339059327378,0" style="fill: #beaed4; stroke: #beaed4; opacity: 0;"></path><path transform="translate(125.66666666666666,293.797932532643)" d="M3.5355339059327378,0A3.5355339059327378,3.5355339059327378,0,1,1,-3.5355339059327378,0A3.5355339059327378,3.5355339059327378,0,1,1,3.5355339059327378,0" style="fill: #beaed4; stroke: #beaed4; opacity: 0;"></path><path transform="translate(188.5,205.26068265858711)" d="M3.5355339059327378,0A3.5355339059327378,3.5355339059327378,0,1,1,-3.5355339059327378,0A3.5355339059327378,3.5355339059327378,0,1,1,3.5355339059327378,0" style="fill: #beaed4; stroke: #beaed4; opacity: 0;"></path><path transform="translate(377,177.05093498782625)" d="M3.5355339059327378,0A3.5355339059327378,3.5355339059327378,0,1,1,-3.5355339059327378,0A3.5355339059327378,3.5355339059327378,0,1,1,3.5355339059327378,0" style="fill: #beaed4; stroke: #beaed4; opacity: 0;"></path><path transform="translate(502.66666666666663,159.05783016737206)" d="M3.5355339059327378,0A3.5355339059327378,3.5355339059327378,0,1,1,-3.5355339059327378,0A3.5355339059327378,3.5355339059327378,0,1,1,3.5355339059327378,0" style="fill: #beaed4; stroke: #beaed4; opacity: 0;"></path><path transform="translate(628.3333333333334,174.85459276111976)" d="M3.5355339059327378,0A3.5355339059327378,3.5355339059327378,0,1,1,-3.5355339059327378,0A3.5355339059327378,3.5355339059327378,0,1,1,3.5355339059327378,0" style="fill: #beaed4; stroke: #beaed4; opacity: 0;"></path><path transform="translate(754,141.7936167440791)" d="M3.5355339059327378,0A3.5355339059327378,3.5355339059327378,0,1,1,-3.5355339059327378,0A3.5355339059327378,3.5355339059327378,0,1,1,3.5355339059327378,0" style="fill: #beaed4; stroke: #beaed4; opacity: 0;"></path><path transform="translate(879.6666666666666,161.00954131871367)" d="M3.5355339059327378,0A3.5355339059327378,3.5355339059327378,0,1,1,-3.5355339059327378,0A3.5355339059327378,3.5355339059327378,0,1,1,3.5355339059327378,0" style="fill: #beaed4; stroke: #beaed4; opacity: 0;"></path><path transform="translate(1005.3333333333333,166.05015996636544)" d="M3.5355339059327378,0A3.5355339059327378,3.5355339059327378,0,1,1,-3.5355339059327378,0A3.5355339059327378,3.5355339059327378,0,1,1,3.5355339059327378,0" style="fill: #beaed4; stroke: #beaed4; opacity: 0;"></path><path transform="translate(1131,227.73704906769316)" d="M3.5355339059327378,0A3.5355339059327378,3.5355339059327378,0,1,1,-3.5355339059327378,0A3.5355339059327378,3.5355339059327378,0,1,1,3.5355339059327378,0" style="fill: #beaed4; stroke: #beaed4; opacity: 0;"></path><path transform="translate(0,296.6137637543332)" d="M3.5355339059327378,0A3.5355339059327378,3.5355339059327378,0,1,1,-3.5355339059327378,0A3.5355339059327378,3.5355339059327378,0,1,1,3.5355339059327378,0" style="fill: #beaed4; stroke: #beaed4; opacity: 0;"></path></g></g></g><g transform="translate(0,0)"><path class="background" d="M0,0h0v0h0Z" style="fill: none;"></path><g><g class="mark-line role-mark"><path d="M0,259.1362941359084L0,167.2647899173446L125.66666666666666,281.29388826809526L188.5,178.97907679388828L188.5,254.42814361499555L251.33333333333331,237.1816484447662L377,166.33869975209547L377,154.89081092851015L628.3333333333334,197.9407705565887L628.3333333333334,281.7288484384835L754,255.9335370462559L879.6666666666666,173.75527417070938L1005.3333333333333,179.68291813279097L1131,134.48655153470673L1131,206.81335071338884" style="fill: none; stroke: #7fc97f; stroke-width: 0.5; opacity: 0.5;"></path></g><g class="mark-symbol role-mark"><path transform="translate(0,259.1362941359084)" d="M3.5355339059327378,0A3.5355339059327378,3.5355339059327378,0,1,1,-3.5355339059327378,0A3.5355339059327378,3.5355339059327378,0,1,1,3.5355339059327378,0" style="fill: #7fc97f; stroke: #7fc97f; opacity: 0;"></path><path transform="translate(188.5,178.97907679388828)" d="M3.5355339059327378,0A3.5355339059327378,3.5355339059327378,0,1,1,-3.5355339059327378,0A3.5355339059327378,3.5355339059327378,0,1,1,3.5355339059327378,0" style="fill: #7fc97f; stroke: #7fc97f; opacity: 0;"></path><path transform="translate(628.3333333333334,197.9407705565887)" d="M3.5355339059327378,0A3.5355339059327378,3.5355339059327378,0,1,1,-3.5355339059327378,0A3.5355339059327378,3.5355339059327378,0,1,1,3.5355339059327378,0" style="fill: #7fc97f; stroke: #7fc97f; opacity: 0;"></path><path transform="translate(1131,134.48655153470673)" d="M3.5355339059327378,0A3.5355339059327378,3.5355339059327378,0,1,1,-3.5355339059327378,0A3.5355339059327378,3.5355339059327378,0,1,1,3.5355339059327378,0" style="fill: #7fc97f; stroke: #7fc97f; opacity: 0;"></path><path transform="translate(0,167.2647899173446)" d="M3.5355339059327378,0A3.5355339059327378,3.5355339059327378,0,1,1,-3.5355339059327378,0A3.5355339059327378,3.5355339059327378,0,1,1,3.5355339059327378,0" style="fill: #beaed4; stroke: #beaed4; opacity: 0;"></path><path transform="translate(125.66666666666666,281.29388826809526)" d="M3.5355339059327378,0A3.5355339059327378,3.5355339059327378,0,1,1,-3.5355339059327378,0A3.5355339059327378,3.5355339059327378,0,1,1,3.5355339059327378,0" style="fill: #beaed4; stroke: #beaed4; opacity: 0;"></path><path transform="translate(188.5,254.42814361499555)" d="M3.5355339059327378,0A3.5355339059327378,3.5355339059327378,0,1,1,-3.5355339059327378,0A3.5355339059327378,3.5355339059327378,0,1,1,3.5355339059327378,0" style="fill: #beaed4; stroke: #beaed4; opacity: 0;"></path><path transform="translate(251.33333333333331,237.1816484447662)" d="M3.5355339059327378,0A3.5355339059327378,3.5355339059327378,0,1,1,-3.5355339059327378,0A3.5355339059327378,3.5355339059327378,0,1,1,3.5355339059327378,0" style="fill: #beaed4; stroke: #beaed4; opacity: 0;"></path><path transform="translate(377,166.33869975209547)" d="M3.5355339059327378,0A3.5355339059327378,3.5355339059327378,0,1,1,-3.5355339059327378,0A3.5355339059327378,3.5355339059327378,0,1,1,3.5355339059327378,0" style="fill: #beaed4; stroke: #beaed4; opacity: 0;"></path><path transform="translate(628.3333333333334,281.7288484384835)" d="M3.5355339059327378,0A3.5355339059327378,3.5355339059327378,0,1,1,-3.5355339059327378,0A3.5355339059327378,3.5355339059327378,0,1,1,3.5355339059327378,0" style="fill: #beaed4; stroke: #beaed4; opacity: 0;"></path><path transform="translate(754,255.9335370462559)" d="M3.5355339059327378,0A3.5355339059327378,3.5355339059327378,0,1,1,-3.5355339059327378,0A3.5355339059327378,3.5355339059327378,0,1,1,3.5355339059327378,0" style="fill: #beaed4; stroke: #beaed4; opacity: 0;"></path><path transform="translate(879.6666666666666,173.75527417070938)" d="M3.5355339059327378,0A3.5355339059327378,3.5355339059327378,0,1,1,-3.5355339059327378,0A3.5355339059327378,3.5355339059327378,0,1,1,3.5355339059327378,0" style="fill: #beaed4; stroke: #beaed4; opacity: 0;"></path><path transform="translate(1005.3333333333333,179.68291813279097)" d="M3.5355339059327378,0A3.5355339059327378,3.5355339059327378,0,1,1,-3.5355339059327378,0A3.5355339059327378,3.5355339059327378,0,1,1,3.5355339059327378,0" style="fill: #beaed4; stroke: #beaed4; opacity: 0;"></path><path transform="translate(1131,206.81335071338884)" d="M3.5355339059327378,0A3.5355339059327378,3.5355339059327378,0,1,1,-3.5355339059327378,0A3.5355339059327378,3.5355339059327378,0,1,1,3.5355339059327378,0" style="fill: #beaed4; stroke: #beaed4; opacity: 0;"></path><path transform="translate(377,154.89081092851015)" d="M3.5355339059327378,0A3.5355339059327378,3.5355339059327378,0,1,1,-3.5355339059327378,0A3.5355339059327378,3.5355339059327378,0,1,1,3.5355339059327378,0" style="fill: #beaed4; stroke: #beaed4; opacity: 0;"></path></g></g></g><g transform="translate(0,0)"><path class="background" d="M0,0h0v0h0Z" style="fill: none;"></path><g><g class="mark-line role-mark"><path d="M0,178.67921572835047L0,251.04945400495794L125.66666666666666,281.94362072997683L188.5,138.4361292409036L188.5,274.1788106955838L188.5,124.66686360622839L251.33333333333331,192.61449266313514L377,188.78215627096844L502.66666666666663,208.70339287173476L628.3333333333334,129.97380164646734L628.3333333333334,251.5795068225652L754,190.009759267612L879.6666666666666,168.19207264874376L1005.3333333333333,255.55219161458788L1131,136.61832726807518L1131,132.1451592733274" style="fill: none; stroke: #7fc97f; stroke-width: 0.5; opacity: 0.5;"></path></g><g class="mark-symbol role-mark"><path transform="translate(0,178.67921572835047)" d="M3.5355339059327378,0A3.5355339059327378,3.5355339059327378,0,1,1,-3.5355339059327378,0A3.5355339059327378,3.5355339059327378,0,1,1,3.5355339059327378,0" style="fill: #7fc97f; stroke: #7fc97f; opacity: 0;"></path><path transform="translate(188.5,138.4361292409036)" d="M3.5355339059327378,0A3.5355339059327378,3.5355339059327378,0,1,1,-3.5355339059327378,0A3.5355339059327378,3.5355339059327378,0,1,1,3.5355339059327378,0" style="fill: #7fc97f; stroke: #7fc97f; opacity: 0;"></path><path transform="translate(628.3333333333334,129.97380164646734)" d="M3.5355339059327378,0A3.5355339059327378,3.5355339059327378,0,1,1,-3.5355339059327378,0A3.5355339059327378,3.5355339059327378,0,1,1,3.5355339059327378,0" style="fill: #7fc97f; stroke: #7fc97f; opacity: 0;"></path><path transform="translate(1131,136.61832726807518)" d="M3.5355339059327378,0A3.5355339059327378,3.5355339059327378,0,1,1,-3.5355339059327378,0A3.5355339059327378,3.5355339059327378,0,1,1,3.5355339059327378,0" style="fill: #7fc97f; stroke: #7fc97f; opacity: 0;"></path><path transform="translate(0,251.04945400495794)" d="M3.5355339059327378,0A3.5355339059327378,3.5355339059327378,0,1,1,-3.5355339059327378,0A3.5355339059327378,3.5355339059327378,0,1,1,3.5355339059327378,0" style="fill: #beaed4; stroke: #beaed4; opacity: 0;"></path><path transform="translate(125.66666666666666,281.94362072997683)" d="M3.5355339059327378,0A3.5355339059327378,3.5355339059327378,0,1,1,-3.5355339059327378,0A3.5355339059327378,3.5355339059327378,0,1,1,3.5355339059327378,0" style="fill: #beaed4; stroke: #beaed4; opacity: 0;"></path><path transform="translate(188.5,274.1788106955838)" d="M3.5355339059327378,0A3.5355339059327378,3.5355339059327378,0,1,1,-3.5355339059327378,0A3.5355339059327378,3.5355339059327378,0,1,1,3.5355339059327378,0" style="fill: #beaed4; stroke: #beaed4; opacity: 0;"></path><path transform="translate(251.33333333333331,192.61449266313514)" d="M3.5355339059327378,0A3.5355339059327378,3.5355339059327378,0,1,1,-3.5355339059327378,0A3.5355339059327378,3.5355339059327378,0,1,1,3.5355339059327378,0" style="fill: #beaed4; stroke: #beaed4; opacity: 0;"></path><path transform="translate(377,188.78215627096844)" d="M3.5355339059327378,0A3.5355339059327378,3.5355339059327378,0,1,1,-3.5355339059327378,0A3.5355339059327378,3.5355339059327378,0,1,1,3.5355339059327378,0" style="fill: #beaed4; stroke: #beaed4; opacity: 0;"></path><path transform="translate(502.66666666666663,208.70339287173476)" d="M3.5355339059327378,0A3.5355339059327378,3.5355339059327378,0,1,1,-3.5355339059327378,0A3.5355339059327378,3.5355339059327378,0,1,1,3.5355339059327378,0" style="fill: #beaed4; stroke: #beaed4; opacity: 0;"></path><path transform="translate(628.3333333333334,251.5795068225652)" d="M3.5355339059327378,0A3.5355339059327378,3.5355339059327378,0,1,1,-3.5355339059327378,0A3.5355339059327378,3.5355339059327378,0,1,1,3.5355339059327378,0" style="fill: #beaed4; stroke: #beaed4; opacity: 0;"></path><path transform="translate(754,190.009759267612)" d="M3.5355339059327378,0A3.5355339059327378,3.5355339059327378,0,1,1,-3.5355339059327378,0A3.5355339059327378,3.5355339059327378,0,1,1,3.5355339059327378,0" style="fill: #beaed4; stroke: #beaed4; opacity: 0;"></path><path transform="translate(879.6666666666666,168.19207264874376)" d="M3.5355339059327378,0A3.5355339059327378,3.5355339059327378,0,1,1,-3.5355339059327378,0A3.5355339059327378,3.5355339059327378,0,1,1,3.5355339059327378,0" style="fill: #beaed4; stroke: #beaed4; opacity: 0;"></path><path transform="translate(1005.3333333333333,255.55219161458788)" d="M3.5355339059327378,0A3.5355339059327378,3.5355339059327378,0,1,1,-3.5355339059327378,0A3.5355339059327378,3.5355339059327378,0,1,1,3.5355339059327378,0" style="fill: #beaed4; stroke: #beaed4; opacity: 0;"></path><path transform="translate(1131,132.1451592733274)" d="M3.5355339059327378,0A3.5355339059327378,3.5355339059327378,0,1,1,-3.5355339059327378,0A3.5355339059327378,3.5355339059327378,0,1,1,3.5355339059327378,0" style="fill: #beaed4; stroke: #beaed4; opacity: 0;"></path><path transform="translate(188.5,124.66686360622839)" d="M3.5355339059327378,0A3.5355339059327378,3.5355339059327378,0,1,1,-3.5355339059327378,0A3.5355339059327378,3.5355339059327378,0,1,1,3.5355339059327378,0" style="fill: #7fc97f; stroke: #7fc97f; opacity: 0;"></path></g></g></g><g transform="translate(0,0)"><path class="background" d="M0,0h0v0h0Z" style="fill: none;"></path><g><g class="mark-line role-mark"><path d="M0,155.41944216535174L125.66666666666666,293.96264232848233L188.5,168.45608591499922L188.5,173.51653447061878L251.33333333333331,241.4638814533254L377,189.96861894234658L502.66666666666663,168.21348596250382L628.3333333333334,172.20850767117958L628.3333333333334,137.8905865389226L754,153.50608098250254L1005.3333333333333,200.6054451137504L1131,149.99374793450895" style="fill: none; stroke: #7fc97f; stroke-width: 0.5; opacity: 0.5;"></path></g><g class="mark-symbol role-mark"><path transform="translate(0,155.41944216535174)" d="M3.5355339059327378,0A3.5355339059327378,3.5355339059327378,0,1,1,-3.5355339059327378,0A3.5355339059327378,3.5355339059327378,0,1,1,3.5355339059327378,0" style="fill: #7fc97f; stroke: #7fc97f; opacity: 0;"></path><path transform="translate(188.5,168.45608591499922)" d="M3.5355339059327378,0A3.5355339059327378,3.5355339059327378,0,1,1,-3.5355339059327378,0A3.5355339059327378,3.5355339059327378,0,1,1,3.5355339059327378,0" style="fill: #7fc97f; stroke: #7fc97f; opacity: 0;"></path><path transform="translate(628.3333333333334,172.20850767117958)" d="M3.5355339059327378,0A3.5355339059327378,3.5355339059327378,0,1,1,-3.5355339059327378,0A3.5355339059327378,3.5355339059327378,0,1,1,3.5355339059327378,0" style="fill: #7fc97f; stroke: #7fc97f; opacity: 0;"></path><path transform="translate(1131,149.99374793450895)" d="M3.5355339059327378,0A3.5355339059327378,3.5355339059327378,0,1,1,-3.5355339059327378,0A3.5355339059327378,3.5355339059327378,0,1,1,3.5355339059327378,0" style="fill: #7fc97f; stroke: #7fc97f; opacity: 0;"></path><path transform="translate(125.66666666666666,293.96264232848233)" d="M3.5355339059327378,0A3.5355339059327378,3.5355339059327378,0,1,1,-3.5355339059327378,0A3.5355339059327378,3.5355339059327378,0,1,1,3.5355339059327378,0" style="fill: #beaed4; stroke: #beaed4; opacity: 0;"></path><path transform="translate(188.5,173.51653447061878)" d="M3.5355339059327378,0A3.5355339059327378,3.5355339059327378,0,1,1,-3.5355339059327378,0A3.5355339059327378,3.5355339059327378,0,1,1,3.5355339059327378,0" style="fill: #beaed4; stroke: #beaed4; opacity: 0;"></path><path transform="translate(251.33333333333331,241.4638814533254)" d="M3.5355339059327378,0A3.5355339059327378,3.5355339059327378,0,1,1,-3.5355339059327378,0A3.5355339059327378,3.5355339059327378,0,1,1,3.5355339059327378,0" style="fill: #beaed4; stroke: #beaed4; opacity: 0;"></path><path transform="translate(377,189.96861894234658)" d="M3.5355339059327378,0A3.5355339059327378,3.5355339059327378,0,1,1,-3.5355339059327378,0A3.5355339059327378,3.5355339059327378,0,1,1,3.5355339059327378,0" style="fill: #beaed4; stroke: #beaed4; opacity: 0;"></path><path transform="translate(502.66666666666663,168.21348596250382)" d="M3.5355339059327378,0A3.5355339059327378,3.5355339059327378,0,1,1,-3.5355339059327378,0A3.5355339059327378,3.5355339059327378,0,1,1,3.5355339059327378,0" style="fill: #beaed4; stroke: #beaed4; opacity: 0;"></path><path transform="translate(628.3333333333334,137.8905865389226)" d="M3.5355339059327378,0A3.5355339059327378,3.5355339059327378,0,1,1,-3.5355339059327378,0A3.5355339059327378,3.5355339059327378,0,1,1,3.5355339059327378,0" style="fill: #beaed4; stroke: #beaed4; opacity: 0;"></path><path transform="translate(754,153.50608098250254)" d="M3.5355339059327378,0A3.5355339059327378,3.5355339059327378,0,1,1,-3.5355339059327378,0A3.5355339059327378,3.5355339059327378,0,1,1,3.5355339059327378,0" style="fill: #beaed4; stroke: #beaed4; opacity: 0;"></path><path transform="translate(1005.3333333333333,200.6054451137504)" d="M3.5355339059327378,0A3.5355339059327378,3.5355339059327378,0,1,1,-3.5355339059327378,0A3.5355339059327378,3.5355339059327378,0,1,1,3.5355339059327378,0" style="fill: #beaed4; stroke: #beaed4; opacity: 0;"></path></g></g></g><g transform="translate(0,0)"><path class="background" d="M0,0h0v0h0Z" style="fill: none;"></path><g><g class="mark-line role-mark"><path d="M0,155.35922642257387L0,228.7252567472184L188.5,160.44793980304175L188.5,249.22625061898657L251.33333333333331,181.99658822948402L377,171.4350326244475L502.66666666666663,190.3922048859673L628.3333333333334,159.09051545933454L628.3333333333334,157.2359406054714L754,211.42841113507828L879.6666666666666,245.97456607281194L1131,136.0413551387827L1131,214.90551583136354L1131,116.91889729108664" style="fill: none; stroke: #7fc97f; stroke-width: 0.5; opacity: 0.5;"></path></g><g class="mark-symbol role-mark"><path transform="translate(0,155.35922642257387)" d="M3.5355339059327378,0A3.5355339059327378,3.5355339059327378,0,1,1,-3.5355339059327378,0A3.5355339059327378,3.5355339059327378,0,1,1,3.5355339059327378,0" style="fill: #7fc97f; stroke: #7fc97f; opacity: 0;"></path><path transform="translate(188.5,160.44793980304175)" d="M3.5355339059327378,0A3.5355339059327378,3.5355339059327378,0,1,1,-3.5355339059327378,0A3.5355339059327378,3.5355339059327378,0,1,1,3.5355339059327378,0" style="fill: #7fc97f; stroke: #7fc97f; opacity: 0;"></path><path transform="translate(628.3333333333334,159.09051545933454)" d="M3.5355339059327378,0A3.5355339059327378,3.5355339059327378,0,1,1,-3.5355339059327378,0A3.5355339059327378,3.5355339059327378,0,1,1,3.5355339059327378,0" style="fill: #7fc97f; stroke: #7fc97f; opacity: 0;"></path><path transform="translate(1131,136.0413551387827)" d="M3.5355339059327378,0A3.5355339059327378,3.5355339059327378,0,1,1,-3.5355339059327378,0A3.5355339059327378,3.5355339059327378,0,1,1,3.5355339059327378,0" style="fill: #7fc97f; stroke: #7fc97f; opacity: 0;"></path><path transform="translate(0,228.7252567472184)" d="M3.5355339059327378,0A3.5355339059327378,3.5355339059327378,0,1,1,-3.5355339059327378,0A3.5355339059327378,3.5355339059327378,0,1,1,3.5355339059327378,0" style="fill: #beaed4; stroke: #beaed4; opacity: 0;"></path><path transform="translate(188.5,249.22625061898657)" d="M3.5355339059327378,0A3.5355339059327378,3.5355339059327378,0,1,1,-3.5355339059327378,0A3.5355339059327378,3.5355339059327378,0,1,1,3.5355339059327378,0" style="fill: #beaed4; stroke: #beaed4; opacity: 0;"></path><path transform="translate(251.33333333333331,181.99658822948402)" d="M3.5355339059327378,0A3.5355339059327378,3.5355339059327378,0,1,1,-3.5355339059327378,0A3.5355339059327378,3.5355339059327378,0,1,1,3.5355339059327378,0" style="fill: #beaed4; stroke: #beaed4; opacity: 0;"></path><path transform="translate(377,171.4350326244475)" d="M3.5355339059327378,0A3.5355339059327378,3.5355339059327378,0,1,1,-3.5355339059327378,0A3.5355339059327378,3.5355339059327378,0,1,1,3.5355339059327378,0" style="fill: #beaed4; stroke: #beaed4; opacity: 0;"></path><path transform="translate(502.66666666666663,190.3922048859673)" d="M3.5355339059327378,0A3.5355339059327378,3.5355339059327378,0,1,1,-3.5355339059327378,0A3.5355339059327378,3.5355339059327378,0,1,1,3.5355339059327378,0" style="fill: #beaed4; stroke: #beaed4; opacity: 0;"></path><path transform="translate(628.3333333333334,157.2359406054714)" d="M3.5355339059327378,0A3.5355339059327378,3.5355339059327378,0,1,1,-3.5355339059327378,0A3.5355339059327378,3.5355339059327378,0,1,1,3.5355339059327378,0" style="fill: #beaed4; stroke: #beaed4; opacity: 0;"></path><path transform="translate(754,211.42841113507828)" d="M3.5355339059327378,0A3.5355339059327378,3.5355339059327378,0,1,1,-3.5355339059327378,0A3.5355339059327378,3.5355339059327378,0,1,1,3.5355339059327378,0" style="fill: #beaed4; stroke: #beaed4; opacity: 0;"></path><path transform="translate(879.6666666666666,245.97456607281194)" d="M3.5355339059327378,0A3.5355339059327378,3.5355339059327378,0,1,1,-3.5355339059327378,0A3.5355339059327378,3.5355339059327378,0,1,1,3.5355339059327378,0" style="fill: #beaed4; stroke: #beaed4; opacity: 0;"></path><path transform="translate(1131,214.90551583136354)" d="M3.5355339059327378,0A3.5355339059327378,3.5355339059327378,0,1,1,-3.5355339059327378,0A3.5355339059327378,3.5355339059327378,0,1,1,3.5355339059327378,0" style="fill: #beaed4; stroke: #beaed4; opacity: 0;"></path><path transform="translate(1131,116.91889729108664)" d="M3.5355339059327378,0A3.5355339059327378,3.5355339059327378,0,1,1,-3.5355339059327378,0A3.5355339059327378,3.5355339059327378,0,1,1,3.5355339059327378,0" style="fill: #7fc97f; stroke: #7fc97f; opacity: 0;"></path></g></g></g><g transform="translate(0,0)"><path class="background" d="M0,0h0v0h0Z" style="fill: none;"></path><g><g class="mark-line role-mark"><path d="M0,186.09756949388859L125.66666666666666,166.89009717554043L377,149.5150643110063L502.66666666666663,162.55294920922077L628.3333333333334,157.17212857073503L754,160.89648985012118L879.6666666666666,150.39820078997997L1131,167.46672216538266" style="fill: none; stroke: #beaed4; stroke-width: 0.5; opacity: 0.5;"></path></g><g class="mark-symbol role-mark"><path transform="translate(1131,167.46672216538266)" d="M3.5355339059327378,0A3.5355339059327378,3.5355339059327378,0,1,1,-3.5355339059327378,0A3.5355339059327378,3.5355339059327378,0,1,1,3.5355339059327378,0" style="fill: #7fc97f; stroke: #7fc97f; opacity: 0;"></path><path transform="translate(0,186.09756949388859)" d="M3.5355339059327378,0A3.5355339059327378,3.5355339059327378,0,1,1,-3.5355339059327378,0A3.5355339059327378,3.5355339059327378,0,1,1,3.5355339059327378,0" style="fill: #beaed4; stroke: #beaed4; opacity: 0;"></path><path transform="translate(125.66666666666666,166.89009717554043)" d="M3.5355339059327378,0A3.5355339059327378,3.5355339059327378,0,1,1,-3.5355339059327378,0A3.5355339059327378,3.5355339059327378,0,1,1,3.5355339059327378,0" style="fill: #beaed4; stroke: #beaed4; opacity: 0;"></path><path transform="translate(377,149.5150643110063)" d="M3.5355339059327378,0A3.5355339059327378,3.5355339059327378,0,1,1,-3.5355339059327378,0A3.5355339059327378,3.5355339059327378,0,1,1,3.5355339059327378,0" style="fill: #beaed4; stroke: #beaed4; opacity: 0;"></path><path transform="translate(502.66666666666663,162.55294920922077)" d="M3.5355339059327378,0A3.5355339059327378,3.5355339059327378,0,1,1,-3.5355339059327378,0A3.5355339059327378,3.5355339059327378,0,1,1,3.5355339059327378,0" style="fill: #beaed4; stroke: #beaed4; opacity: 0;"></path><path transform="translate(628.3333333333334,157.17212857073503)" d="M3.5355339059327378,0A3.5355339059327378,3.5355339059327378,0,1,1,-3.5355339059327378,0A3.5355339059327378,3.5355339059327378,0,1,1,3.5355339059327378,0" style="fill: #beaed4; stroke: #beaed4; opacity: 0;"></path><path transform="translate(754,160.89648985012118)" d="M3.5355339059327378,0A3.5355339059327378,3.5355339059327378,0,1,1,-3.5355339059327378,0A3.5355339059327378,3.5355339059327378,0,1,1,3.5355339059327378,0" style="fill: #beaed4; stroke: #beaed4; opacity: 0;"></path><path transform="translate(879.6666666666666,150.39820078997997)" d="M3.5355339059327378,0A3.5355339059327378,3.5355339059327378,0,1,1,-3.5355339059327378,0A3.5355339059327378,3.5355339059327378,0,1,1,3.5355339059327378,0" style="fill: #beaed4; stroke: #beaed4; opacity: 0;"></path></g></g></g><g transform="translate(0,0)"><path class="background" d="M0,0h0v0h0Z" style="fill: none;"></path><g><g class="mark-line role-mark"><path d="M0,235.02887628795764L125.66666666666666,132.75079410043907L251.33333333333331,171.64799967612666L377,280.0752746334435L502.66666666666663,253.84323927344502L628.3333333333334,180.46709365258508L754,320.0031820446342L879.6666666666666,300.1474922790693L1005.3333333333333,330.4438678530024L1131,131.3741386044107L1131,192.02240000649664" style="fill: none; stroke: #beaed4; stroke-width: 0.5; opacity: 0.5;"></path></g><g class="mark-symbol role-mark"><path transform="translate(1131,131.3741386044107)" d="M3.5355339059327378,0A3.5355339059327378,3.5355339059327378,0,1,1,-3.5355339059327378,0A3.5355339059327378,3.5355339059327378,0,1,1,3.5355339059327378,0" style="fill: #7fc97f; stroke: #7fc97f; opacity: 0;"></path><path transform="translate(0,235.02887628795764)" d="M3.5355339059327378,0A3.5355339059327378,3.5355339059327378,0,1,1,-3.5355339059327378,0A3.5355339059327378,3.5355339059327378,0,1,1,3.5355339059327378,0" style="fill: #beaed4; stroke: #beaed4; opacity: 0;"></path><path transform="translate(125.66666666666666,132.75079410043907)" d="M3.5355339059327378,0A3.5355339059327378,3.5355339059327378,0,1,1,-3.5355339059327378,0A3.5355339059327378,3.5355339059327378,0,1,1,3.5355339059327378,0" style="fill: #beaed4; stroke: #beaed4; opacity: 0;"></path><path transform="translate(251.33333333333331,171.64799967612666)" d="M3.5355339059327378,0A3.5355339059327378,3.5355339059327378,0,1,1,-3.5355339059327378,0A3.5355339059327378,3.5355339059327378,0,1,1,3.5355339059327378,0" style="fill: #beaed4; stroke: #beaed4; opacity: 0;"></path><path transform="translate(377,280.0752746334435)" d="M3.5355339059327378,0A3.5355339059327378,3.5355339059327378,0,1,1,-3.5355339059327378,0A3.5355339059327378,3.5355339059327378,0,1,1,3.5355339059327378,0" style="fill: #beaed4; stroke: #beaed4; opacity: 0;"></path><path transform="translate(502.66666666666663,253.84323927344502)" d="M3.5355339059327378,0A3.5355339059327378,3.5355339059327378,0,1,1,-3.5355339059327378,0A3.5355339059327378,3.5355339059327378,0,1,1,3.5355339059327378,0" style="fill: #beaed4; stroke: #beaed4; opacity: 0;"></path><path transform="translate(628.3333333333334,180.46709365258508)" d="M3.5355339059327378,0A3.5355339059327378,3.5355339059327378,0,1,1,-3.5355339059327378,0A3.5355339059327378,3.5355339059327378,0,1,1,3.5355339059327378,0" style="fill: #beaed4; stroke: #beaed4; opacity: 0;"></path><path transform="translate(754,320.0031820446342)" d="M3.5355339059327378,0A3.5355339059327378,3.5355339059327378,0,1,1,-3.5355339059327378,0A3.5355339059327378,3.5355339059327378,0,1,1,3.5355339059327378,0" style="fill: #beaed4; stroke: #beaed4; opacity: 0;"></path><path transform="translate(879.6666666666666,300.1474922790693)" d="M3.5355339059327378,0A3.5355339059327378,3.5355339059327378,0,1,1,-3.5355339059327378,0A3.5355339059327378,3.5355339059327378,0,1,1,3.5355339059327378,0" style="fill: #beaed4; stroke: #beaed4; opacity: 0;"></path><path transform="translate(1005.3333333333333,330.4438678530024)" d="M3.5355339059327378,0A3.5355339059327378,3.5355339059327378,0,1,1,-3.5355339059327378,0A3.5355339059327378,3.5355339059327378,0,1,1,3.5355339059327378,0" style="fill: #beaed4; stroke: #beaed4; opacity: 0;"></path><path transform="translate(1131,192.02240000649664)" d="M3.5355339059327378,0A3.5355339059327378,3.5355339059327378,0,1,1,-3.5355339059327378,0A3.5355339059327378,3.5355339059327378,0,1,1,3.5355339059327378,0" style="fill: #beaed4; stroke: #beaed4; opacity: 0;"></path></g></g></g><g transform="translate(0,0)"><path class="background" d="M0,0h0v0h0Z" style="fill: none;"></path><g><g class="mark-line role-mark"><path d="M0,281.5573655524172L125.66666666666666,219.91030441332418L251.33333333333331,164.71763089093997L377,167.6183080948822L502.66666666666663,140.39347250349363L628.3333333333334,155.8658242922975L754,182.01262143119914L879.6666666666666,246.2834047712781L1005.3333333333333,226.28317242509894L1131,160.310783032519L1131,199.83347283448546" style="fill: none; stroke: #beaed4; stroke-width: 0.5; opacity: 0.5;"></path></g><g class="mark-symbol role-mark"><path transform="translate(1131,160.310783032519)" d="M3.5355339059327378,0A3.5355339059327378,3.5355339059327378,0,1,1,-3.5355339059327378,0A3.5355339059327378,3.5355339059327378,0,1,1,3.5355339059327378,0" style="fill: #7fc97f; stroke: #7fc97f; opacity: 0;"></path><path transform="translate(0,281.5573655524172)" d="M3.5355339059327378,0A3.5355339059327378,3.5355339059327378,0,1,1,-3.5355339059327378,0A3.5355339059327378,3.5355339059327378,0,1,1,3.5355339059327378,0" style="fill: #beaed4; stroke: #beaed4; opacity: 0;"></path><path transform="translate(125.66666666666666,219.91030441332418)" d="M3.5355339059327378,0A3.5355339059327378,3.5355339059327378,0,1,1,-3.5355339059327378,0A3.5355339059327378,3.5355339059327378,0,1,1,3.5355339059327378,0" style="fill: #beaed4; stroke: #beaed4; opacity: 0;"></path><path transform="translate(251.33333333333331,164.71763089093997)" d="M3.5355339059327378,0A3.5355339059327378,3.5355339059327378,0,1,1,-3.5355339059327378,0A3.5355339059327378,3.5355339059327378,0,1,1,3.5355339059327378,0" style="fill: #beaed4; stroke: #beaed4; opacity: 0;"></path><path transform="translate(377,167.6183080948822)" d="M3.5355339059327378,0A3.5355339059327378,3.5355339059327378,0,1,1,-3.5355339059327378,0A3.5355339059327378,3.5355339059327378,0,1,1,3.5355339059327378,0" style="fill: #beaed4; stroke: #beaed4; opacity: 0;"></path><path transform="translate(502.66666666666663,140.39347250349363)" d="M3.5355339059327378,0A3.5355339059327378,3.5355339059327378,0,1,1,-3.5355339059327378,0A3.5355339059327378,3.5355339059327378,0,1,1,3.5355339059327378,0" style="fill: #beaed4; stroke: #beaed4; opacity: 0;"></path><path transform="translate(628.3333333333334,155.8658242922975)" d="M3.5355339059327378,0A3.5355339059327378,3.5355339059327378,0,1,1,-3.5355339059327378,0A3.5355339059327378,3.5355339059327378,0,1,1,3.5355339059327378,0" style="fill: #beaed4; stroke: #beaed4; opacity: 0;"></path><path transform="translate(754,182.01262143119914)" d="M3.5355339059327378,0A3.5355339059327378,3.5355339059327378,0,1,1,-3.5355339059327378,0A3.5355339059327378,3.5355339059327378,0,1,1,3.5355339059327378,0" style="fill: #beaed4; stroke: #beaed4; opacity: 0;"></path><path transform="translate(879.6666666666666,246.2834047712781)" d="M3.5355339059327378,0A3.5355339059327378,3.5355339059327378,0,1,1,-3.5355339059327378,0A3.5355339059327378,3.5355339059327378,0,1,1,3.5355339059327378,0" style="fill: #beaed4; stroke: #beaed4; opacity: 0;"></path><path transform="translate(1005.3333333333333,226.28317242509894)" d="M3.5355339059327378,0A3.5355339059327378,3.5355339059327378,0,1,1,-3.5355339059327378,0A3.5355339059327378,3.5355339059327378,0,1,1,3.5355339059327378,0" style="fill: #beaed4; stroke: #beaed4; opacity: 0;"></path><path transform="translate(1131,199.83347283448546)" d="M3.5355339059327378,0A3.5355339059327378,3.5355339059327378,0,1,1,-3.5355339059327378,0A3.5355339059327378,3.5355339059327378,0,1,1,3.5355339059327378,0" style="fill: #beaed4; stroke: #beaed4; opacity: 0;"></path></g></g></g><g transform="translate(0,0)"><path class="background" d="M0,0h0v0h0Z" style="fill: none;"></path><g><g class="mark-line role-mark"><path d="M0,184.6624577767919L125.66666666666666,147.65265231066257L251.33333333333331,223.48102821562813L502.66666666666663,159.8375046764985L628.3333333333334,193.71135622159753L754,149.57727670098993L1131,132.69449896934822" style="fill: none; stroke: #beaed4; stroke-width: 0.5; opacity: 0.5;"></path></g><g class="mark-symbol role-mark"><path transform="translate(1131,132.69449896934822)" d="M3.5355339059327378,0A3.5355339059327378,3.5355339059327378,0,1,1,-3.5355339059327378,0A3.5355339059327378,3.5355339059327378,0,1,1,3.5355339059327378,0" style="fill: #7fc97f; stroke: #7fc97f; opacity: 0;"></path><path transform="translate(0,184.6624577767919)" d="M3.5355339059327378,0A3.5355339059327378,3.5355339059327378,0,1,1,-3.5355339059327378,0A3.5355339059327378,3.5355339059327378,0,1,1,3.5355339059327378,0" style="fill: #beaed4; stroke: #beaed4; opacity: 0;"></path><path transform="translate(125.66666666666666,147.65265231066257)" d="M3.5355339059327378,0A3.5355339059327378,3.5355339059327378,0,1,1,-3.5355339059327378,0A3.5355339059327378,3.5355339059327378,0,1,1,3.5355339059327378,0" style="fill: #beaed4; stroke: #beaed4; opacity: 0;"></path><path transform="translate(251.33333333333331,223.48102821562813)" d="M3.5355339059327378,0A3.5355339059327378,3.5355339059327378,0,1,1,-3.5355339059327378,0A3.5355339059327378,3.5355339059327378,0,1,1,3.5355339059327378,0" style="fill: #beaed4; stroke: #beaed4; opacity: 0;"></path><path transform="translate(502.66666666666663,159.8375046764985)" d="M3.5355339059327378,0A3.5355339059327378,3.5355339059327378,0,1,1,-3.5355339059327378,0A3.5355339059327378,3.5355339059327378,0,1,1,3.5355339059327378,0" style="fill: #beaed4; stroke: #beaed4; opacity: 0;"></path><path transform="translate(628.3333333333334,193.71135622159753)" d="M3.5355339059327378,0A3.5355339059327378,3.5355339059327378,0,1,1,-3.5355339059327378,0A3.5355339059327378,3.5355339059327378,0,1,1,3.5355339059327378,0" style="fill: #beaed4; stroke: #beaed4; opacity: 0;"></path><path transform="translate(754,149.57727670098993)" d="M3.5355339059327378,0A3.5355339059327378,3.5355339059327378,0,1,1,-3.5355339059327378,0A3.5355339059327378,3.5355339059327378,0,1,1,3.5355339059327378,0" style="fill: #beaed4; stroke: #beaed4; opacity: 0;"></path></g></g></g><g transform="translate(0,0)"><path class="background" d="M0,0h0v0h0Z" style="fill: none;"></path><g><g class="mark-line role-mark"><path d="M125.66666666666666,240.68720921284705L251.33333333333331,161.08419498080394L377,215.76464751876156L502.66666666666663,212.7074019347894L628.3333333333334,242.36610584264986L754,183.5188644944422L1131,195.6290538534049" style="fill: none; stroke: #beaed4; stroke-width: 0.5; opacity: 0.5;"></path></g><g class="mark-symbol role-mark"><path transform="translate(1131,195.6290538534049)" d="M3.5355339059327378,0A3.5355339059327378,3.5355339059327378,0,1,1,-3.5355339059327378,0A3.5355339059327378,3.5355339059327378,0,1,1,3.5355339059327378,0" style="fill: #7fc97f; stroke: #7fc97f; opacity: 0;"></path><path transform="translate(125.66666666666666,240.68720921284705)" d="M3.5355339059327378,0A3.5355339059327378,3.5355339059327378,0,1,1,-3.5355339059327378,0A3.5355339059327378,3.5355339059327378,0,1,1,3.5355339059327378,0" style="fill: #beaed4; stroke: #beaed4; opacity: 0;"></path><path transform="translate(251.33333333333331,161.08419498080394)" d="M3.5355339059327378,0A3.5355339059327378,3.5355339059327378,0,1,1,-3.5355339059327378,0A3.5355339059327378,3.5355339059327378,0,1,1,3.5355339059327378,0" style="fill: #beaed4; stroke: #beaed4; opacity: 0;"></path><path transform="translate(377,215.76464751876156)" d="M3.5355339059327378,0A3.5355339059327378,3.5355339059327378,0,1,1,-3.5355339059327378,0A3.5355339059327378,3.5355339059327378,0,1,1,3.5355339059327378,0" style="fill: #beaed4; stroke: #beaed4; opacity: 0;"></path><path transform="translate(502.66666666666663,212.7074019347894)" d="M3.5355339059327378,0A3.5355339059327378,3.5355339059327378,0,1,1,-3.5355339059327378,0A3.5355339059327378,3.5355339059327378,0,1,1,3.5355339059327378,0" style="fill: #beaed4; stroke: #beaed4; opacity: 0;"></path><path transform="translate(628.3333333333334,242.36610584264986)" d="M3.5355339059327378,0A3.5355339059327378,3.5355339059327378,0,1,1,-3.5355339059327378,0A3.5355339059327378,3.5355339059327378,0,1,1,3.5355339059327378,0" style="fill: #beaed4; stroke: #beaed4; opacity: 0;"></path><path transform="translate(754,183.5188644944422)" d="M3.5355339059327378,0A3.5355339059327378,3.5355339059327378,0,1,1,-3.5355339059327378,0A3.5355339059327378,3.5355339059327378,0,1,1,3.5355339059327378,0" style="fill: #beaed4; stroke: #beaed4; opacity: 0;"></path></g></g></g></g><g class="mark-group role-legend"><g transform="translate(1153,0)"><path class="background" d="M0,0h66v45h-66Z" style="pointer-events: none; fill: none;"></path><g><g class="mark-group role-legend-entry"><g transform="translate(0,16)"><path class="background" d="M0,0h0v0h0Z" style="pointer-events: none; fill: none;"></path><g><g class="mark-group role-scope"><g transform="translate(0,0)"><path class="background" d="M0,0h40.3447265625v13h-40.3447265625Z" style="pointer-events: none; fill: none; opacity: 1;"></path><g><g class="mark-symbol role-legend-symbol legendSymbol"><path transform="translate(6,6)" d="M5,0A5,5,0,1,1,-5,0A5,5,0,1,1,5,0" style="fill: none; stroke: #7fc97f; stroke-width: 2; opacity: 1;"></path></g><g class="mark-text role-legend-label legendLabel"><text text-anchor="start" transform="translate(16,9)" style="font-family: sans-serif; font-size: 10px; fill: #000; opacity: 1;">stool</text></g></g></g><g transform="translate(0,16)"><path class="background" d="M0,0h40.3447265625v13h-40.3447265625Z" style="pointer-events: none; fill: none; opacity: 1;"></path><g><g class="mark-symbol role-legend-symbol legendSymbol"><path transform="translate(6,6)" d="M5,0A5,5,0,1,1,-5,0A5,5,0,1,1,5,0" style="fill: none; stroke: #beaed4; stroke-width: 2; opacity: 1;"></path></g><g class="mark-text role-legend-label legendLabel"><text text-anchor="start" transform="translate(16,9)" style="font-family: sans-serif; font-size: 10px; fill: #000; opacity: 1;">swab</text></g></g></g></g></g></g></g><g class="mark-text role-legend-title" style="pointer-events: none;"><text text-anchor="start" transform="translate(0,9)" style="font-family: sans-serif; font-size: 11px; font-weight: bold; fill: #000; opacity: 1;">sample-type</text></g></g></g></g></g></g></g><g class="mark-text role-title" style="pointer-events: none;"><text text-anchor="middle" transform="translate(594.21923828125,-13)" style="font-family: sans-serif; font-size: 13px; font-weight: bold; fill: #000; opacity: 1;">shannon_entropy</text></g></g></g></g></g></svg>